<?xml version="1.0" encoding="utf-8"?>
<!-- Generator: Adobe Illustrator 18.1.0, SVG Export Plug-In . SVG Version: 6.00 Build 0)  -->
<svg version="1.1" id="Layer_1" xmlns="http://www.w3.org/2000/svg" xmlns:xlink="http://www.w3.org/1999/xlink" x="0px" y="0px"
	 viewBox="0 0 500 500" enable-background="new 0 0 500 500" xml:space="preserve">
<g>
	<circle fill="#EF922A" cx="250" cy="250" r="192.6"/>
	<g>
		<g>
			<path fill="#F4AA73" d="M346.5,262.2c-7.5-3.9-15.9-3.3-18.8,1.5L307,300.1c-2.9,4.7-2.6,10.4,4.9,14.3l-0.1,7.1
				c7.5,3.9,15.9,3.3,18.8-1.5l24.2-42.2C357.7,273.1,354,266.1,346.5,262.2z"/>
		</g>
		<path fill="#F9BB88" d="M254.5,248.1c-28.4-12-58.4-5.3-66.9,14.9L163.3,321c-8.5,20.2,7.6,46.3,36.1,58.3l19.4,10.9
			c76.1,24.9,112.5-70.5,112.5-70.5C339.8,299.4,283,260.1,254.5,248.1z"/>
		<path fill="#F4AA73" d="M277,208.6l17.8-40.3l-65.2,30.3l-59,69l-10.9,27.9l30.3,25.6c0,0,17.7,14.1,27.9,8.5
			c15.5-8.5,89.2-11.6,89.2-11.6l-2.3-10.1L277,208.6z"/>
		<g>
			<path fill="#F9BB88" d="M321.2,141.4l-43.7,40.2c-4.2,3.6-2.9,11.4,3.1,17.4c5.9,6,14.2,8,18.4,4.3l43.7-40.2
				c4.2-3.6,2.9-11.4-3.1-17.4C333.6,139.8,325.4,137.8,321.2,141.4z"/>
		</g>
		<g>
			<path fill="#F4AA73" d="M333.6,230.6c-7.5-3.9-15.9-3.3-18.8,1.5l-20.7,36.4c-2.9,4.7-2.6,10.4,4.9,14.3l-0.1,7.1
				c7.5,3.9,15.9,3.3,18.8-1.5l24.2-42.2C344.8,241.6,341.1,234.6,333.6,230.6z"/>
		</g>
		<g>
			<path fill="#F4AA73" d="M324.6,194.7c-7.5-3.9-15.9-3.3-18.8,1.5L285,232.6c-2.9,4.7-2.6,10.4,4.9,14.3l-0.1,7.1
				c7.5,3.9,15.9,3.3,18.8-1.5l24.2-42.2C335.7,205.6,332,198.6,324.6,194.7z"/>
		</g>
		<path fill="#EEFCFF" d="M304.6,110.4H195c-5.2,0-9.4,4.2-9.4,9.4v189.4c0,5.2,4.2,9.4,9.4,9.4h109.5c5.2,0,9.4-4.2,9.4-9.4V119.8
			C313.9,114.6,309.7,110.4,304.6,110.4z"/>
		<path fill="#E15C2F" d="M294.6,127.1H205c-4.4,0-7.9,3.5-7.9,7.9v146c0,4.4,3.5,7.9,7.9,7.9h89.5c4.4,0,7.9-3.5,7.9-7.9V135
			C302.5,130.6,298.9,127.1,294.6,127.1z"/>
		<path fill="#B4DCE8" d="M261,115.5h-22.5c-1.5,0-2.7,1.2-2.7,2.7c0,1.5,1.2,2.7,2.7,2.7H261c1.5,0,2.7-1.2,2.7-2.7
			C263.7,116.7,262.5,115.5,261,115.5z"/>
		<ellipse fill="#B4DCE8" cx="249.8" cy="302.3" rx="19.8" ry="6.5"/>
		<g>
			<g>
				<path fill="#F9BB88" d="M331.8,256.7l-17.3,14.1c-4.3,3.5-3.2,11.3,2.6,17.5c5.8,6.2,13.9,8.4,18.3,4.9l17.3-14.1
					c4.3-3.5,3.2-11.3-2.6-17.5C344.3,255.4,336.2,253.2,331.8,256.7z"/>
			</g>
			<path fill="#FFE2CA" d="M321.5,271.7l-4.9,3.9c0,0,0.7,3,5.1,7.6c5.5,5.8,6.1,5.6,8.1,6.6l4.9-3.9c3.4-2.8,3.3-8.2-0.3-12.1
				C330.7,269.9,325,269,321.5,271.7z"/>
		</g>
		<g>
			<path fill="#F9BB88" d="M176.2,270.3c0,0,12-17.1,19.1-41c7.1-23.9-10.3-36.2-10.3-36.2l-50.3,63.2l18.9,71.8
				c0,0,9.7,25.2,20.9,33.4c18.9,13.6,33.8,3.5,42.4-10.3C234.5,322.9,176.2,270.3,176.2,270.3z"/>
			<path fill="#FFE2CA" d="M182.8,195.8L169,213.2c0.3,0.2,0.5,0.4,0.8,0.6c3.9,2.2,8.8,0.9,11.1-2.9l4.4-7.6
				C187.1,200,185.6,197.7,182.8,195.8z"/>
		</g>
		<path fill="#F9BB88" d="M138.3,407c9.5,6.8,19.6,12.7,30.2,17.6l75.7,0.6l13.9-48.2l-96.4-33.2L138.3,407z"/>
		<path fill="#FFFFFF" d="M132,402.3c12.2,9.4,25.5,17.4,39.7,23.8l77.4-0.3l10.7-30.5L153,357L132,402.3z"/>
		<path fill="#108699" d="M128,399c33.2,27.2,75.7,43.6,122,43.6c0.6,0,1.1,0,1.7,0l10.7-36.3l-118.6-41L128,399z"/>
		<circle fill="#01767C" cx="238.9" cy="418.7" r="10.1"/>
		<g>
			<g>
				<path fill="#F9BB88" d="M308.9,191.3l-6.6,5.8c-5.5,4.4-5.2,13,0.7,19.1c5.9,6.1,15.1,7.4,20.5,3l6.6-5.8c5.5-4.4,5.2-13-0.7-19
					C323.6,188.2,314.4,186.9,308.9,191.3z"/>
			</g>
		</g>
		<path fill="#FFE2CA" d="M305.7,200.8l-4,3.2c0,0,0.9,2.8,5.2,7.5c5.4,5.9,6,5.7,7.8,6.8l4-3.2c2.9-2.3,2.3-7.4-1.3-11.3
			C313.8,199.8,308.6,198.5,305.7,200.8z"/>
		<g>
			<path fill="#F9BB88" d="M319.3,223.5L302,237.6c-4.3,3.5-3.2,11.3,2.6,17.5c5.8,6.2,13.9,8.4,18.3,4.9l17.3-14.1
				c4.3-3.5,3.2-11.3-2.6-17.5C331.8,222.2,323.6,220,319.3,223.5z"/>
		</g>
		<path fill="#FFE2CA" d="M309,238.5l-4.9,3.9c0,0,0.7,3,5.1,7.6c5.5,5.8,6.1,5.6,8.1,6.6l4.9-3.9c3.4-2.8,3.3-8.2-0.3-12.1
			C318.2,236.7,312.4,235.8,309,238.5z"/>
		<g>
			<path fill="#FFFFFF" d="M250.6,168.2c-22.2,0-40.2,18-40.2,40.2c0,22.2,18,40.2,40.2,40.2c22.2,0,40.2-18,40.2-40.2
				C290.8,186.1,272.8,168.2,250.6,168.2z M250.6,242c-18.6,0-33.7-15.1-33.7-33.7c0-18.6,15.1-33.7,33.7-33.7
				c18.6,0,33.7,15.1,33.7,33.7C284.3,226.9,269.2,242,250.6,242z"/>
			<path fill="#FFFFFF" d="M249.4,169.5c-9.2,0-16.7,17.4-16.7,38.9c0,21.5,7.5,38.9,16.7,38.9c9.2,0,16.7-17.4,16.7-38.9
				C266.1,186.9,258.6,169.5,249.4,169.5z M249.4,240.7c-5.5,0-10-14.5-10-32.4c0-17.9,4.5-32.4,10-32.4c5.5,0,10,14.5,10,32.4
				C259.4,226.2,254.9,240.7,249.4,240.7z"/>
			<g>
				<path fill="#FFFFFF" d="M250.6,248.2c0.2,0,0.4,0,0.5,0c-0.3,0-0.6,0-0.8,0C250.4,248.2,250.5,248.2,250.6,248.2z"/>
				<path fill="#FFFFFF" d="M216.2,228.7c1,1.7,2.1,3.3,3.4,4.9c5.6-3.2,16.8-5.5,29.7-5.5c14.3,0,26.5,2.7,31.3,6.5
					c1.3-1.5,2.5-3.1,3.6-4.7c-6.9-5.1-19.9-8.5-34.9-8.5C235.6,221.4,223.5,224.3,216.2,228.7z"/>
				<path fill="#FFFFFF" d="M249.4,187.9c-13,0-24.2-2.2-29.7-5.5c-1.3,1.5-2.4,3.2-3.4,4.9c7.2,4.4,19.4,7.3,33.1,7.3
					c15,0,28-3.4,34.9-8.5c-1.1-1.7-2.3-3.2-3.6-4.7C275.9,185.2,263.7,187.9,249.4,187.9z"/>
			</g>
			<rect x="212.1" y="203.8" fill="#FFFFFF" width="77" height="6.2"/>
			<rect x="212.1" y="205.4" fill="#FFFFFF" width="77" height="6.2"/>
		</g>
	</g>
</g>
</svg>
