<?xml version="1.0" encoding="utf-8"?>
<!-- Generator: Adobe Illustrator 18.1.0, SVG Export Plug-In . SVG Version: 6.00 Build 0)  -->
<svg version="1.1" id="Layer_1" xmlns="http://www.w3.org/2000/svg" xmlns:xlink="http://www.w3.org/1999/xlink" x="0px" y="0px"
	 viewBox="0 0 500 500" enable-background="new 0 0 500 500" xml:space="preserve">
<g>
	<circle fill="#108699" cx="250" cy="250" r="192.6"/>
	<g>
		<g>
			<g>
				<polygon fill="#D7F7F6" points="361.9,350.4 377.6,324.8 346.2,324.8 				"/>
				<polygon fill="#FFFFFF" points="361.9,350.4 377.6,324.8 371,324.8 				"/>
				<path fill="#EF922A" d="M374.6,143.1l-25.4,0c-1.5,0-2.7,1.2-2.7,2.7v7.5c0,1.5,1.2,2.7,2.7,2.7h4.2h2.1h19.2
					c1.5,0,2.7-1.2,2.7-2.7v-7.5C377.2,144.3,376.1,143.1,374.6,143.1z"/>
				<rect x="346.2" y="162.6" fill="#FFD371" width="31.4" height="162.2"/>
				<rect x="346.2" y="162.6" fill="#EF922A" width="10.2" height="162.2"/>
				<rect x="367.5" y="162.6" fill="#EF922A" width="10.1" height="162.2"/>
				<g>
					<rect x="345.9" y="151.6" fill="#D7F7F6" width="31.9" height="28.8"/>
					<rect x="345.9" y="151.6" fill="#FFFFFF" width="16.5" height="28.8"/>
					<g>
						<rect x="345.9" y="155.6" fill="#FFFFFF" width="31.9" height="3.7"/>
					</g>
					<g>
						<rect x="345.9" y="163.6" fill="#FFFFFF" width="31.9" height="3.7"/>
					</g>
					<g>
						<rect x="345.9" y="171.6" fill="#FFFFFF" width="31.9" height="3.7"/>
					</g>
					<polygon fill="#FFFFFF" points="346.6,150 345.9,151.6 377.8,151.6 377.3,150 					"/>
				</g>
				<polygon fill="#EF922A" points="361.9,350.4 367.7,341 356.1,341 				"/>
			</g>
			<g>
				<g>
					<path fill="#D7F7F6" d="M323.6,143.1l-20.8,0c-1.5,0-2.7,1.2-2.7,2.7v5.2c0,1.5,1.2,2.7,2.7,2.7l4.2,0l1.1,0l15.6,0
						c1.5,0,2.7-1.2,2.7-2.7v-5.2C326.2,144.3,325,143.1,323.6,143.1z"/>
					<path fill="#FFFFFF" d="M300.1,150.3c0,1.5,1.2,2.7,2.7,2.7h4.2h1.1h15.6c1.5,0,2.7-1.2,2.7-2.7v-4.2l-26.1,0V150.3z"/>
				</g>
				<g>
					<rect x="301.9" y="298.6" fill="#18BFC8" width="22.8" height="4.2"/>
					<rect x="301.9" y="298.6" fill="#18BFC8" width="11.8" height="4.2"/>
				</g>
				<g>
					<rect x="299.8" y="149.5" fill="#18BFC8" width="27" height="38.9"/>
					<rect x="299.8" y="149.5" fill="#18BFC8" width="14" height="38.9"/>
				</g>
				<g>
					<polygon fill="#18BFC8" points="301.9,299 324.7,299 325.7,285.7 300.8,285.7 					"/>
					<polygon fill="#18BFC8" points="322.4,299 324.1,299 325.1,285.7 323.5,285.7 					"/>
					<polygon fill="#18BFC8" points="301.9,299 313.7,299 313.7,285.7 300.8,285.7 					"/>
				</g>
				<g>
					<polygon fill="#18BFC8" points="300.8,286.3 325.7,286.3 326.9,189 299.7,189 					"/>
					<polygon fill="#18BFC8" points="299.7,189 300.8,286.3 313.7,286.3 313.7,189 					"/>
				</g>
				<polygon fill="#18BFC8" points="303.1,306 323.6,306 324.7,302.8 301.9,302.8 				"/>
				<polygon fill="#18BFC8" points="308.6,306 319.2,306 319.2,302.8 307.4,302.8 				"/>
				<g>
					<path fill="#FFFFFF" d="M317.6,305.9l-3.5,0l-6,0l-2,0l-6.7,21.2c0,0,10.1,4,11.7,23.3h1.5v-20.5c-0.9-0.3-1.5-1.1-1.5-2.1
						c0-1.3,1-2.3,2.3-2.3c1.3,0,2.3,1,2.3,2.3c0,1-0.6,1.8-1.5,2.1v20.5l1.5,0c1.5-19.3,11.7-23.3,11.7-23.3l-6.7-21.2H317.6z"/>
					<path fill="#D7F7F6" d="M306,305.9l-6.7,21.2c0,0,10.1,4,11.7,23.3h1.5v-20.5c-0.9-0.3-1.5-1.1-1.5-2.1c0-1.3,1-2.3,2.3-2.3
						c0.1,0,0.3,0,0.4,0v-19.6l-5.7,0L306,305.9z"/>
				</g>
				<g>
					<rect x="299.9" y="284" fill="#D7F7F6" width="26.8" height="3.2"/>
					<rect x="323.5" y="284" fill="#FFFFFF" width="1.8" height="3.2"/>
				</g>
				<g>
					<rect x="299.1" y="187.3" fill="#D7F7F6" width="28.4" height="3.2"/>
					<rect x="324.1" y="187.3" fill="#FFFFFF" width="1.9" height="3.2"/>
				</g>
				<path fill="#18BFC8" d="M320.8,149.6h-3.4c-0.5,0-0.8,0.4-0.8,0.8v33.4c0,0.5,0.4,0.8,0.8,0.8l3.4,0c0.5,0,0.8-0.4,0.8-0.8
					v-33.4C321.7,150,321.3,149.6,320.8,149.6z"/>
				<g>
					<rect x="299.1" y="147.6" fill="#D7F7F6" width="28.4" height="3.2"/>
					<rect x="324.1" y="147.6" fill="#FFFFFF" width="1.9" height="3.2"/>
				</g>
				<g>
					<path fill="#D7F7F6" d="M322.3,149h-3.4c-0.5,0-0.8,0.4-0.8,0.8v33.4c0,0.5,0.4,0.8,0.8,0.8h3.4c0.5,0,0.8-0.4,0.8-0.8l0-33.4
						C323.2,149.4,322.8,149,322.3,149z"/>
					<path fill="#FFFFFF" d="M322.3,149h-3.4c-0.5,0-0.8,0.4-0.8,0.8v0.7h3c0.5,0,0.8,0.4,0.8,0.8v32.8h0.4c0.5,0,0.8-0.4,0.8-0.8
						l0-33.4C323.2,149.4,322.8,149,322.3,149z"/>
				</g>
			</g>
		</g>
		<g>
			<g>
				<path fill-rule="evenodd" clip-rule="evenodd" fill="#E15C2F" d="M151.8,143.1c-10.8,0-20,11.7-20,27.1v159.7
					c0-14.4,9.2-26.2,20-26.2h20V172.9c0-0.9,0-1.8,0-2.7C171.8,154.8,162.7,143.1,151.8,143.1z"/>
				<rect x="151.8" y="143.1" fill-rule="evenodd" clip-rule="evenodd" fill="#EF922A" width="125.4" height="160.6"/>
			</g>
			<path fill-rule="evenodd" clip-rule="evenodd" fill="#FFD371" d="M131.8,329.8c0,15.3,9.2,27.1,20,27.1h125.4v-53.2H151.8
				C141,303.7,131.8,315.4,131.8,329.8z"/>
			<path fill-rule="evenodd" clip-rule="evenodd" fill="#FFFFFF" d="M155.4,310h-2.8c-9,0-15.5,9.7-15.5,20.3
				c0,11.5,6.5,21.2,15.5,21.2h2.8h119h2.8V310h-2.8H155.4z"/>
			<path fill-rule="evenodd" clip-rule="evenodd" fill="#D7F7F6" d="M155.4,310h-2.8c-9,0-15.5,9.7-15.5,20.3c0,2.5,0.3,5,0.9,7.3
				c2.1-7.6,7.6-13.5,14.6-13.5h2.8h119h2.8V310h-2.8H155.4z"/>
			<ellipse fill="#E15C2F" cx="160.1" cy="190.1" rx="5.8" ry="6.3"/>
			<ellipse fill="#E15C2F" cx="160.1" cy="239.4" rx="5.8" ry="6.3"/>
			<g>
				<ellipse fill="#E15C2F" cx="160.1" cy="288.6" rx="5.8" ry="6.3"/>
				<g>
					<path fill="#D7F7F6" d="M152.1,170.6h-18.9c-0.4,0-0.9,0-1.3,0.1c-5.4,0.8-9.6,6.3-9.6,13v3.8c0,6.7,4.2,12.2,9.6,13v-6.5
						c-1-0.4-1.7-1-2.1-1.5c-1.1-1.3-1.7-3-1.7-4.9v-3.8c0-1.9,0.6-3.7,1.7-4.9c0.4-0.5,1.1-1.1,2.1-1.5c0.4-0.1,0.8-0.2,1.3-0.2
						h18.9c1.7,0,2.8,1.1,3.4,1.7c1.1,1.3,1.7,3,1.7,4.9v2.7v5.1c1,0.1,2.2,0.2,3.4,0.2c0.9,0,1.7,0,2.5-0.1v-5.3v-2.6
						C163,176.5,158.1,170.6,152.1,170.6z"/>
					<path fill="#D7F7F6" d="M152.1,219.9h-18.9c-0.4,0-0.9,0-1.3,0.1c-5.4,0.8-9.6,6.3-9.6,13v3.8c0,6.7,4.2,12.2,9.6,13v-6.5
						c-1-0.4-1.7-1-2.1-1.5c-1.1-1.3-1.7-3-1.7-4.9v-3.8c0-1.9,0.6-3.7,1.7-4.9c0.4-0.5,1.1-1.1,2.1-1.5c0.4-0.1,0.8-0.2,1.3-0.2
						h18.9c1.7,0,2.8,1.1,3.4,1.7c1.1,1.3,1.7,3,1.7,4.9v2.7v5.1c1,0.1,2.2,0.2,3.4,0.2c0.9,0,1.7,0,2.5-0.1v-5.3v-2.6
						C163,225.7,158.1,219.9,152.1,219.9z"/>
					<path fill="#D7F7F6" d="M152.1,269.1h-18.9c-0.4,0-0.9,0-1.3,0.1c-5.4,0.8-9.6,6.3-9.6,13v3.8c0,6.7,4.2,12.2,9.6,13v-6.5
						c-1-0.4-1.7-1-2.1-1.5c-1.1-1.3-1.7-3-1.7-4.9v-3.8c0-1.9,0.6-3.7,1.7-4.9c0.4-0.5,1.1-1.1,2.1-1.5c0.4-0.1,0.8-0.2,1.3-0.2
						h18.9c1.7,0,2.8,1.1,3.4,1.7c1.1,1.3,1.7,3,1.7,4.9v2.7v5.1c1,0.1,2.2,0.2,3.4,0.2c0.9,0,1.7,0,2.5-0.1v-5.3v-2.6
						C163,275,158.1,269.1,152.1,269.1z"/>
				</g>
			</g>
			<g>
				<rect x="182.2" y="179.2" fill-rule="evenodd" clip-rule="evenodd" fill="#E15C2F" width="71.3" height="51.4"/>
				<rect x="182.2" y="241.2" fill-rule="evenodd" clip-rule="evenodd" fill="#E15C2F" width="71.3" height="7.4"/>
				<rect x="182.2" y="256.5" fill-rule="evenodd" clip-rule="evenodd" fill="#E15C2F" width="36.4" height="7.4"/>
			</g>
		</g>
	</g>
</g>
</svg>
