<?xml version="1.0" encoding="utf-8"?>
<!-- Generator: Adobe Illustrator 18.1.0, SVG Export Plug-In . SVG Version: 6.00 Build 0)  -->
<svg version="1.1" id="Layer_1" xmlns="http://www.w3.org/2000/svg" xmlns:xlink="http://www.w3.org/1999/xlink" x="0px" y="0px"
	 viewBox="0 0 500 500" enable-background="new 0 0 500 500" xml:space="preserve">
<g>
	<circle fill="#18BFC8" cx="250" cy="250" r="192.6"/>
	<g>
		<g>
			<g>
				<g>
					<path fill="#108699" d="M367.7,178.3h-5.4c-5.9,0-10.7,4.8-10.7,10.7v17.9c0,5.9,4.8,10.7,10.7,10.7h5.4
						c5.9,0,10.7-4.8,10.7-10.7V189C378.5,183.1,373.7,178.3,367.7,178.3z"/>
					<path fill="#EF9620" d="M367.7,217.6h-5.4c-5.9,0-10.7,4.8-10.7,10.7v17.9c0,5.9,4.8,10.7,10.7,10.7h5.4
						c5.9,0,10.7-4.8,10.7-10.7v-17.9C378.5,222.4,373.7,217.6,367.7,217.6z"/>
					<path fill="#18BFC8" d="M367.7,256.9h-5.4c-5.9,0-10.7,4.8-10.7,10.7v17.9c0,5.9,4.8,10.7,10.7,10.7h5.4
						c5.9,0,10.7-4.8,10.7-10.7v-17.9C378.5,261.7,373.7,256.9,367.7,256.9z"/>
					<path fill="#01767C" d="M364.2,178.3v39.3h3.6c1.3,0,2.5-0.2,3.6-0.6v-38c-1.1-0.4-2.3-0.6-3.6-0.6H364.2z"/>
					<path fill="#E5891C" d="M364.2,217.6v39.3h3.6c1.3,0,2.5-0.2,3.6-0.6v-38c-1.1-0.4-2.3-0.6-3.6-0.6H364.2z"/>
					<path fill="#1B93AF" d="M364.2,256.9v39.3h3.6c1.3,0,2.5-0.2,3.6-0.6v-38c-1.1-0.4-2.3-0.6-3.6-0.6H364.2z"/>
				</g>
				<path fill="#D64C27" d="M353.5,133.6H248.1c-5.9,0-10.7,4.8-10.7,21.4v94.7v3.6v48.2c0,5.9,4.8,10.7,10.7,10.7h105.4
					c5.9,0,10.7-4.8,10.7-10.7v-48.2v-3.6V155C364.2,138.4,359.4,133.6,353.5,133.6z"/>
				<path fill="#C44026" d="M351.7,133.6H248.1c-5.9,0-10.7,4.8-10.7,10.7V164c0,5.9,4.8,10.7,10.7,10.7h103.6
					c5.9,0,10.7-4.8,10.7-10.7v-19.6C362.4,138.4,357.6,133.6,351.7,133.6z"/>
				<path fill="#C44026" d="M359.7,133.6h-32.1c-2.5,0-4.5,2-4.5,4.5c0,2.5,2,4.5,4.5,4.5h32.1c2.5,0,4.5-2,4.5-4.5
					C364.2,135.6,362.2,133.6,359.7,133.6z"/>
				<path fill="#C44026" d="M359.7,165.8h-32.1c-2.5,0-4.5,2-4.5,4.5c0,2.5,2,4.5,4.5,4.5h32.1c2.5,0,4.5-2,4.5-4.5
					C364.2,167.8,362.2,165.8,359.7,165.8z"/>
				<path fill="#EEFCFF" d="M246.3,147v14.4c0,2.4,2,4.4,4.4,4.4h113.5v-23.2H250.7C248.3,142.5,246.3,144.5,246.3,147z"/>
				<path fill="#FFFFFF" d="M246.3,147v7.1c0-2.4,2-4.4,4.4-4.4h113.5v-7.1H250.7C248.3,142.5,246.3,144.5,246.3,147z"/>
				<rect x="355.2" y="165.8" fill="#C44026" width="8.9" height="3.6"/>
				<rect x="353.5" y="139" fill="#C44026" width="10.7" height="3.6"/>
			</g>
			<g>
				<path fill="#C44026" d="M341.2,219.7H265c-2.1,0-3.8,1.7-3.8,3.8l0,0c0,2.1,1.7,3.8,3.8,3.8h76.2c2.1,0,3.8-1.7,3.8-3.8l0,0
					C345,221.4,343.3,219.7,341.2,219.7z"/>
				<path fill="#C44026" d="M300.4,236.6H265c-2.1,0-3.8,1.7-3.8,3.8l0,0c0,2.1,1.7,3.8,3.8,3.8h35.4c2.1,0,3.8-1.7,3.8-3.8l0,0
					C304.2,238.3,302.5,236.6,300.4,236.6z"/>
			</g>
		</g>
		<g>
			<g>
				<path fill="#108699" d="M273.4,231.1c-0.6-5.4-5.9-12.4-11.2-11.8l-142.3,16.6c-5.4,0.6-8.8,8.7-8.2,14.1l12.1,103.5
					c0.6,5.4,5.5,9.2,10.8,8.6l142.3-16.6c5.4-0.6,9.2-5.5,8.6-10.8L273.4,231.1z"/>
				<circle fill="#108699" cx="205.2" cy="348.9" r="9.8"/>
				<path fill="#108699" d="M272.7,224.6c-0.6-5.4-5.5-9.2-10.8-8.6l-142.3,16.6c-5.4,0.6-9.2,5.5-8.6,10.8l12.5,106.7
					c0.6,5.4,5.5,9.2,10.8,8.6l142.3-16.6c5.4-0.6,9.2-5.5,8.6-10.8L272.7,224.6z"/>
				<g>
					<path fill="#01767C" d="M204.5,342.4l-0.9-8.1L193.3,247l-0.8-6.5l-0.9-8.1c-0.6-5.4-5.5-9.2-10.8-8.6l-6.5,0.8l-1.6,0.2
						l-50.1,5.9c-2.7,0.3-4.6,2.7-4.3,5.4l13.4,114.8c0.3,2.7,2.7,4.6,5.4,4.3l48.5-5.7l9.7-1.1c5.4-0.6,10.2,3.2,10.8,8.6l-1.1-9.7
						L204.5,342.4z"/>
					<g>
						<path fill="#01767C" d="M263.8,219.1c-0.3-2.7-2.7-4.6-5.4-4.3l-50.1,5.9l-1.6,0.2l-6.5,0.8c-5.4,0.6-9.2,5.5-8.6,10.8
							l0.9,8.1l0.8,6.5l10.2,87.3l0.9,8.1l0.6,4.9l1.1,9.7c-0.6-5.4,3.2-10.2,8.6-10.8l9.7-1.1l48.5-5.7c2.7-0.3,4.6-2.7,4.3-5.4
							L263.8,219.1z"/>
					</g>
				</g>
				<g>
					<path fill="#FFFFFF" d="M203.9,337.6l-0.9-8.1l-10.2-87.3l-1.1-9.7l-0.6-4.9c-0.6-5.4-5.5-9.2-10.8-8.6l-6.5,0.8l-1.6,0.2
						l-50.1,5.9c-2.7,0.3-4.6,2.7-4.3,5.4l13.4,114.8c0.3,2.7,2.7,4.6,5.4,4.3l48.5-5.7l9.7-1.1c5.4-0.6,10.2,3.2,10.8,8.6l-1.1-9.7
						L203.9,337.6z"/>
					<path fill="#77C3F5" d="M263.3,214.3c-0.3-2.7-2.7-4.6-5.4-4.3l-50.1,5.9l-1.6,0.2l-6.5,0.8c-5.4,0.6-9.2,5.5-8.6,10.8l0.6,4.9
						l1.1,9.7l10.2,87.3l0.9,8.1l0.6,4.9l1.1,9.7c-0.6-5.4,3.2-10.2,8.6-10.8l9.7-1.1l48.5-5.7c2.7-0.3,4.6-2.7,4.3-5.4L263.3,214.3
						z"/>
					<path fill="#FFFFFF" d="M263.3,214.3c-0.3-2.7-2.7-4.6-5.4-4.3l-50.1,5.9l-1.6,0.2l-6.5,0.8c-5.4,0.6-9.2,5.5-8.6,10.8l0.6,4.9
						l1.1,9.7l10.2,87.3l0.9,8.1l0.6,4.9l1.1,9.7c-0.6-5.4,3.2-10.2,8.6-10.8l9.7-1.1l48.5-5.7c2.7-0.3,4.6-2.7,4.3-5.4L263.3,214.3
						z"/>
					<path fill="#EEFCFF" d="M210.4,336.8l-0.9-8.1l-10.2-87.3l-1.1-9.7l-0.6-4.9c-0.6-5.4,3.2-10.2,8.6-10.8l-6.5,0.8
						c-5.4,0.6-9.2,5.5-8.6,10.8l0.6,4.9l1.1,9.7l10.2,87.3l0.9,8.1l0.6,4.9l1.1,9.7c-0.5-4.2,1.8-8.1,5.4-9.9l-0.1-0.6L210.4,336.8
						z"/>
				</g>
			</g>
			<g>
				<g>
					
						<rect x="154.6" y="232.6" transform="matrix(-0.1161 -0.9932 0.9932 -0.1161 -81.468 446.2388)" fill="#18BFC8" width="6.5" height="53.6"/>
					
						<rect x="156.1" y="245.4" transform="matrix(-0.1161 -0.9932 0.9932 -0.1161 -92.5583 462.2265)" fill="#18BFC8" width="6.5" height="53.7"/>
					
						<rect x="157.7" y="258.4" transform="matrix(-0.1161 -0.9932 0.9932 -0.1161 -103.718 478.1681)" fill="#18BFC8" width="6.5" height="53.7"/>
					
						<rect x="159.3" y="271.2" transform="matrix(-0.1161 -0.9932 0.9932 -0.1161 -114.7724 494.181)" fill="#18BFC8" width="6.5" height="53.9"/>
				</g>
			</g>
			<g>
				<g>
					
						<rect x="230.4" y="222.1" transform="matrix(-0.1161 -0.9932 0.9932 -0.1161 13.5674 509.8177)" fill="#18BFC8" width="6.5" height="53.6"/>
					
						<rect x="232" y="234.9" transform="matrix(-0.1161 -0.9932 0.9932 -0.1161 2.4789 525.8078)" fill="#18BFC8" width="6.5" height="53.7"/>
					
						<rect x="233.5" y="247.9" transform="matrix(-0.1161 -0.9932 0.9932 -0.1161 -8.6807 541.7489)" fill="#18BFC8" width="6.5" height="53.7"/>
					
						<rect x="221.3" y="276.2" transform="matrix(-0.1161 -0.9932 0.9932 -0.1161 -36.6817 545.895)" fill="#18BFC8" width="6.5" height="26.2"/>
				</g>
			</g>
		</g>
	</g>
</g>
</svg>
