<?xml version="1.0" encoding="utf-8"?>
<!-- Generator: Adobe Illustrator 18.1.0, SVG Export Plug-In . SVG Version: 6.00 Build 0)  -->
<svg version="1.1" id="Layer_1" xmlns="http://www.w3.org/2000/svg" xmlns:xlink="http://www.w3.org/1999/xlink" x="0px" y="0px"
	 viewBox="0 0 500 500" enable-background="new 0 0 500 500" xml:space="preserve">
<g>
	<circle fill="#EF922A" cx="250" cy="250" r="192.6"/>
	<g>
		<g>
			<g>
				<path fill="#FFFFFF" d="M239.1,234.2h-36.5c-23.4,0-42.4,10.6-42.4,23.6v162.6c26.8,14.2,57.4,22.2,89.8,22.2
					c10.6,0,21-0.9,31.2-2.5l0.3-182.3C281.4,244.7,262.5,234.2,239.1,234.2z"/>
				<g>
					<path fill="#E2CAAA" d="M336.3,257.2c-3.4,0-10.1,4.5-11.7,8.2c3.9,1.3,6.7,5,6.7,9.3c0,4.4-2.9,8.1-6.9,9.4
						c1.3,3.6,8.4,7.7,11.9,7.7c3.8,0,6.9-3.1,6.9-6.9l2.3-16.9C346.1,260.6,340.1,257.2,336.3,257.2z"/>
				</g>
				<path fill="#EEFCFF" d="M243.4,234.2h-30.1V352c0,18.9,25.1,47,62.8,47c1.8,0,3.6-0.1,5.4-0.2V255.5
					C281.4,243.7,264.4,234.2,243.4,234.2z"/>
				<path fill="#FFFFFF" d="M298.3,132.6c-91.2-38.7-142.2,24.8-150.1,45.9c-11.6,30.8-9,69.1,7.8,94.2l37.7,88.1
					c0,18.9,40.2,27.3,77.8,27.3c41,0,62.4-5.6,62.4-24.5l12.3-83.1v-78.6C346.2,171.9,324.2,143.6,298.3,132.6z"/>
				<g>
					<path fill="#FFFFFF" d="M340.6,223.8l-18.8,79c0,0,10.1,1,13.1,1c8.2,0,23.7-0.7,26.2-5.7c4-7.8-4.5-22.3-10.1-37.9
						C344.6,242.5,340.6,223.8,340.6,223.8z"/>
				</g>
			</g>
		</g>
		<g>
			<g>
				<g>
					<g>
						<path fill="#E15C2F" d="M261.9,195.9c-1.1-3-2.5-5.8-4.3-8.5l8.2-9.2c-2.3-3.1-4.9-6-7.9-8.7c-3-2.7-6.2-4.9-9.6-6.8l-9,8.9
							c-2.9-1.3-6-2.3-9.1-3l-0.7-12.3c-7.8-1.2-15.8-0.7-23.4,1.5l-0.1,12.6c-3,1.1-5.8,2.5-8.5,4.3l-9.2-8.2
							c-3.1,2.3-6,4.9-8.7,7.9c-2.7,3-4.9,6.2-6.8,9.6l8.9,9c-1.3,2.9-2.3,6-3,9.1l-12.3,0.7c-1.2,7.8-0.7,15.8,1.5,23.4l12.6,0.1
							c1.1,3,2.5,5.8,4.3,8.5l-8.2,9.2c2.3,3.1,4.9,6,7.9,8.7c3,2.7,6.2,4.9,9.6,6.8l9-8.9c2.9,1.3,6,2.3,9.1,3l0.7,12.3
							c7.8,1.2,15.8,0.7,23.4-1.5l0.1-12.6c3-1.1,5.8-2.5,8.5-4.3l9.2,8.2c3.1-2.3,6-4.9,8.7-7.9c2.7-3,4.9-6.3,6.8-9.6l-8.9-9
							c1.3-2.9,2.3-6,3-9.1l12.3-0.7c1.2-7.8,0.7-15.8-1.5-23.4L261.9,195.9z M234,222.2c-6.2,7-16.9,7.7-23.9,1.5
							c-7-6.2-7.7-16.9-1.5-23.9c6.2-7,16.9-7.7,23.9-1.5C239.5,204.6,240.2,215.2,234,222.2z"/>
					</g>
				</g>
				<g>
					<g>
						<path fill="#D33211" d="M239.4,190.6c-11.3-10-28.6-8.9-38.5,2.4c-10,11.3-8.9,28.6,2.4,38.5c11.3,10,28.6,8.9,38.5-2.4
							C251.7,217.8,250.7,200.6,239.4,190.6z M233.5,221.8c-5.9,6.7-16.2,7.4-22.9,1.4c-6.7-5.9-7.4-16.2-1.4-22.9
							c5.9-6.7,16.2-7.4,22.9-1.4C238.8,204.8,239.4,215.1,233.5,221.8z"/>
					</g>
				</g>
				<g>
					<path fill-rule="evenodd" clip-rule="evenodd" fill="#108699" d="M305.1,183.2c-0.2-0.7-0.5-1.4-0.9-2l3.3-4.2
						c-1.2-1.7-2.7-3.2-4.5-4.4l-4.1,3.4c-0.7-0.3-1.3-0.6-2-0.8l-0.6-5.3c-1-0.2-2.1-0.3-3.1-0.3c-1.1,0-2.1,0.1-3.1,0.3l-0.5,5.3
						c-0.7,0.2-1.4,0.5-2,0.9l-4.2-3.3c-1.7,1.2-3.2,2.7-4.4,4.5l3.4,4.1c-0.3,0.7-0.6,1.3-0.8,2l-5.3,0.6c-0.2,1-0.3,2.1-0.3,3.1
						c0,1.1,0.1,2.1,0.3,3.1l5.3,0.5c0.2,0.7,0.5,1.4,0.9,2L279,197c1.2,1.7,2.7,3.2,4.5,4.4l4.1-3.4c0.7,0.3,1.3,0.6,2,0.8l0.6,5.3
						c1,0.2,2.1,0.3,3.1,0.3c1.1,0,2.1-0.1,3.1-0.3l0.5-5.3c0.7-0.2,1.4-0.5,2-0.9l4.2,3.3c1.7-1.2,3.2-2.7,4.4-4.5l-3.4-4.1
						c0.3-0.6,0.6-1.3,0.8-2l5.3-0.6c0.2-1,0.3-2.1,0.3-3.1c0-1.1-0.1-2.1-0.3-3.1L305.1,183.2z M293.3,194c-3.9,0-7.1-3.1-7.1-7
						c0-3.9,3.1-7.1,7-7.1c3.9,0,7.1,3.1,7.1,7C300.4,190.8,297.3,194,293.3,194z"/>
				</g>
				<g>
					<g>
						<path fill-rule="evenodd" clip-rule="evenodd" fill="#18BFC8" d="M319.2,233.9l7.2-5c-1.1-3.3-2.7-6.5-4.9-9.2l-8.1,3.3
							c-0.9-0.9-1.9-1.7-3-2.5l1.6-8.6c-1.5-0.8-3.2-1.5-4.9-2c-1.7-0.5-3.4-0.9-5.1-1.1l-3.4,8.1c-1.3,0-2.6,0.1-3.8,0.4l-5-7.2
							c-3.3,1.1-6.5,2.7-9.2,4.9l3.3,8.1c-0.9,0.9-1.7,1.9-2.5,3l-8.6-1.6c-0.8,1.5-1.5,3.2-2,4.9c-0.5,1.7-0.9,3.4-1.1,5.1l8.1,3.4
							c0,1.3,0.1,2.6,0.4,3.8l-7.2,5c1.1,3.3,2.7,6.5,4.9,9.2l8.1-3.3c0.9,0.9,1.9,1.7,3,2.5l-1.6,8.6c1.5,0.8,3.1,1.5,4.9,2
							c1.7,0.5,3.4,0.9,5.1,1.1l3.4-8.1c1.3,0,2.6-0.1,3.8-0.4l5,7.2c3.3-1.1,6.5-2.7,9.2-4.9l-3.3-8.1c0.9-0.9,1.7-1.9,2.5-3
							l8.6,1.6c0.8-1.5,1.5-3.2,2-4.9c0.5-1.7,0.9-3.4,1.1-5.1l-8.1-3.4C319.6,236.5,319.5,235.2,319.2,233.9z M310,241.3
							c-1.9,6.2-8.5,9.8-14.8,7.9c-6.2-1.9-9.8-8.5-7.9-14.8c1.9-6.2,8.5-9.8,14.8-7.9C308.4,228.4,311.9,235,310,241.3z"/>
					</g>
				</g>
			</g>
		</g>
	</g>
</g>
</svg>
