<?xml version="1.0" encoding="utf-8"?>
<!-- Generator: Adobe Illustrator 18.1.0, SVG Export Plug-In . SVG Version: 6.00 Build 0)  -->
<svg version="1.1" id="Layer_1" xmlns="http://www.w3.org/2000/svg" xmlns:xlink="http://www.w3.org/1999/xlink" x="0px" y="0px"
	 viewBox="0 0 500 500" enable-background="new 0 0 500 500" xml:space="preserve">
<g>
	<circle fill="#E15C2F" cx="250" cy="250" r="192.6"/>
	<g>
		<g>
			<circle fill="#EF922A" cx="248.9" cy="190.3" r="82.7"/>
			<path fill="#FFD371" d="M248.9,122.1c-18.6,0-35.5,7.4-47.8,19.5c10.4-5.6,22.3-8.8,34.9-8.8c40.7,0,73.6,33,73.6,73.6
				c0,6.9-0.9,13.5-2.7,19.8c6.5-10.4,10.2-22.7,10.2-35.9C317.1,152.6,286.6,122.1,248.9,122.1z"/>
			<g>
				<rect x="233.4" y="279.5" fill="#D7F7F6" width="33.3" height="16.3"/>
				<rect x="233.4" y="296.4" fill="#B4DCE8" width="33.3" height="9.4"/>
				<polygon fill="#D7F7F6" points="266.7,305.7 233.5,305.7 233.4,305.7 231,311 233.4,311 266.7,311 269.1,311 266.7,305.7 				
					"/>
				<polygon fill="#E2F7F5" points="236.6,305.7 235,311 236.6,311 238.2,311 239.8,305.7 236.7,305.7 				"/>
				<polygon fill="#E2F7F5" points="241.1,305.7 239.6,311 241.1,311 241.5,311 243,305.7 241.2,305.7 				"/>
				<path fill="#B4DCE8" d="M233.4,279.5v9.1c5.4,1.2,10.9,1.8,16.7,1.8c5.7,0,11.3-0.6,16.7-1.8l0-9.1H233.4z"/>
				<g>
					<rect x="229.2" y="290.2" fill="#D7F7F6" width="41.7" height="11"/>
					<g>
						<rect x="229.2" y="290.2" fill="#FFFFFF" width="4.2" height="11"/>
						<rect x="236.7" y="290.2" fill="#FFFFFF" width="4.2" height="11"/>
						<rect x="244.2" y="290.2" fill="#FFFFFF" width="4.2" height="11"/>
						<rect x="251.7" y="290.2" fill="#FFFFFF" width="4.2" height="11"/>
						<rect x="259.2" y="290.2" fill="#FFFFFF" width="4.2" height="11"/>
						<rect x="266.7" y="290.2" fill="#FFFFFF" width="4.2" height="11"/>
					</g>
					<g>
						<polygon fill="#FFFFFF" points="266.7,290.4 270.9,290.2 266.7,290.2 						"/>
					</g>
				</g>
				<rect x="231" y="310.9" fill="#B4DCE8" width="38.1" height="8.9"/>
				<g>
					<path fill="#B4DCE8" d="M250,96.3c-51.1,0-92.6,41.5-92.6,92.6c0,51.1,41.5,92.6,92.6,92.6c51.1,0,92.6-41.5,92.6-92.6
						C342.6,137.7,301.2,96.3,250,96.3z M250,263.5c-41.2,0-74.7-33.4-74.7-74.7c0-41.2,33.4-74.7,74.7-74.7
						c41.2,0,74.7,33.4,74.7,74.7C324.7,230.1,291.3,263.5,250,263.5z"/>
				</g>
				<g>
					<path fill="#D7F7F6" d="M250,91.1c-54,0-97.7,43.8-97.7,97.7c0,54,43.8,97.7,97.7,97.7s97.7-43.8,97.7-97.7
						C347.7,134.9,304,91.1,250,91.1z M250,274.6c-47.4,0-85.7-38.4-85.7-85.7c0-47.4,38.4-85.7,85.7-85.7
						c47.4,0,85.7,38.4,85.7,85.7C335.7,236.2,297.4,274.6,250,274.6z"/>
				</g>
				<g>
					<path fill="#D7F7F6" d="M250,91.1c-54,0-97.7,43.8-97.7,97.7c0,54,43.8,97.7,97.7,97.7s97.7-43.8,97.7-97.7
						C347.7,134.9,304,91.1,250,91.1z M250,274.6c-47.4,0-85.7-38.4-85.7-85.7c0-47.4,38.4-85.7,85.7-85.7
						c47.4,0,85.7,38.4,85.7,85.7C335.7,236.2,297.4,274.6,250,274.6z"/>
				</g>
				<path fill="#E2F7F5" d="M250,274.6c-46.8,0-84.9-37.5-85.7-84.2c0,0.5,0,1,0,1.6c0,47.4,38.4,85.7,85.7,85.7
					c47.4,0,85.7-38.4,85.7-85.7c0-0.5,0-1.1,0-1.6C334.9,237.1,296.8,274.6,250,274.6z"/>
				<g>
					<rect x="219" y="322.4" fill="#00636D" width="62.1" height="88.7"/>
					<rect x="219" y="322.4" fill="#108699" width="32.1" height="88.7"/>
					<g>
						<rect x="219" y="329.4" fill="#108699" width="62.1" height="7.3"/>
					</g>
					<g>
						<rect x="219" y="345" fill="#108699" width="62.1" height="7.3"/>
					</g>
					<g>
						<rect x="219" y="360.6" fill="#108699" width="62.1" height="7.3"/>
					</g>
					<g>
						<rect x="219" y="376.2" fill="#108699" width="62.1" height="7.3"/>
					</g>
					<polygon fill="#108699" points="224.1,316.9 219,322.4 281.1,322.4 275.8,316.9 					"/>
				</g>
			</g>
		</g>
		<path fill-rule="evenodd" clip-rule="evenodd" fill="#FFFFFF" d="M298.3,161c-5.7-5.4-14.8-5.2-20.2,0.6L243.6,198L226,181.6
			c-5.8-5.3-14.8-5-20.2,0.8c-5.4,5.9-5,14.8,0.8,20.2l28,25.9c2.6,2.5,6,3.8,9.4,3.8c3.9,0.1,7.8-1.4,10.6-4.5l44.2-46.6
			C304.2,175.5,304,166.4,298.3,161z"/>
	</g>
</g>
</svg>
