<?xml version="1.0" encoding="utf-8"?>
<!-- Generator: Adobe Illustrator 18.1.0, SVG Export Plug-In . SVG Version: 6.00 Build 0)  -->
<svg version="1.1" id="Layer_1" xmlns="http://www.w3.org/2000/svg" xmlns:xlink="http://www.w3.org/1999/xlink" x="0px" y="0px"
	 viewBox="0 0 500 500" enable-background="new 0 0 500 500" xml:space="preserve">
<g>
	<circle fill="#18BFC8" cx="250" cy="250" r="192.6"/>
	<g>
		<g>
			<polygon fill="#D7F7F6" points="256.5,321.9 243.5,321.9 218.2,321.9 199.4,359.1 243.5,359.1 256.5,359.1 300.6,359.1 
				281.8,321.9 			"/>
		</g>
		<path fill="#108699" d="M359.8,162H140.2c-4.5,0-8.1,3.6-8.1,8.1v16.2v119.5v16.2c0,4.5,3.6,8.1,8.1,8.1h219.7
			c4.5,0,8.1-3.6,8.1-8.1v-16.2V186.2v-16.2C367.9,165.6,364.3,162,359.8,162z"/>
		<rect x="146.1" y="174.6" fill="#FFBE52" width="207.7" height="136.4"/>
		<path fill="#FFFFFF" d="M299.3,354.2h-98.5c-4.5,0-8.1,3.6-8.1,8.1v6.5h114.7v-6.5C307.3,357.8,303.7,354.2,299.3,354.2z"/>
		<path fill="#FFFFFF" d="M299.3,354.2h-98.5c-4.5,0-8.1,3.6-8.1,8.1v4.2c0-4.5,3.6-8.1,8.1-8.1h98.5c4.5,0,8.1,3.6,8.1,8.1v-4.2
			C307.3,357.8,303.7,354.2,299.3,354.2z"/>
		<g>
			<g>
				<rect x="258.7" y="187.7" fill="#C44026" width="52.6" height="123.2"/>
				<rect x="294.3" y="187.7" fill="#E15C2F" width="17" height="123.2"/>
				<rect x="258.7" y="187.7" fill="#E15C2F" width="16.8" height="123.2"/>
				<g>
					<polygon fill="#FFFFFF" points="258.7,187.7 311.3,187.7 285,131.2 					"/>
					<polygon fill="#C44026" points="275.9,150.9 294.1,150.9 285,131.2 					"/>
				</g>
			</g>
			<g>
				<g>
					<path fill="#D7F7F6" d="M222.5,133.7l-3.2,0l0,42.7c1.8,0.7,3.1,2.4,3.1,4.4c0,2.6-2.1,4.7-4.7,4.7c-2.6,0-4.7-2.1-4.7-4.7
						c0-2,1.3-3.8,3.1-4.4v-42.7l-3.2,0c-3.2,40.2-24.2,48.4-24.2,48.4l14,44l6.2,0l7.3,0l12.5,0h4.2l14-44
						C246.7,182.1,225.6,173.9,222.5,133.7z"/>
					<path fill="#FFFFFF" d="M222.5,133.7l-3.2,0l0,42.7c1.8,0.7,3.1,2.4,3.1,4.4c0,2.6-2.1,4.7-4.7,4.7c-0.3,0-0.6,0-0.8-0.1
						l0,40.6l11.8,0h4.2l14-44C246.7,182.1,225.6,173.9,222.5,133.7z"/>
				</g>
				<g>
					<g>
						<polygon fill="#01767C" points="197.4,220.5 193.1,236.5 242.3,236.5 237.8,220.5 						"/>
					</g>
					<polygon fill="#108699" points="209.6,236.5 193.1,236.5 193.1,311 209.6,311 225.7,311 242.3,311 242.3,236.5 225.7,236.5 
											"/>
				</g>
			</g>
		</g>
	</g>
</g>
</svg>
