<?xml version="1.0" encoding="utf-8"?>
<!-- Generator: Adobe Illustrator 18.1.0, SVG Export Plug-In . SVG Version: 6.00 Build 0)  -->
<svg version="1.1" id="Layer_1" xmlns="http://www.w3.org/2000/svg" xmlns:xlink="http://www.w3.org/1999/xlink" x="0px" y="0px"
	 viewBox="0 0 500 500" enable-background="new 0 0 500 500" xml:space="preserve">
<g>
	<circle fill="#18BFC8" cx="250" cy="250" r="192.6"/>
	<g>
		<g>
			<path fill="#FFFFFF" d="M296.7,150.7H121.5c-6.6,0-11.9,5.3-11.9,11.9v19.9v77.6V294c0,6.6,5.3,11.9,11.9,11.9h33.8h107.5h33.8
				c6.6,0,11.9-5.3,11.9-11.9v-33.8v-77.6v-19.9C308.6,156,303.3,150.7,296.7,150.7z"/>
			<path fill="#FFFFFF" d="M284.2,165.5h-3.9H137.9h-3.9c-5.1,0-9.3,4.1-9.3,9.3v9.8v5.6v10.2v45.4v9.8V272v9.8
				c0,5.1,4.1,9.3,9.3,9.3h3.9h22.3h3.9h89.9h3.9h22.3h3.9c5.1,0,9.3-4.1,9.3-9.3V272v-16.4v-9.8v-45.4v-10.2v-5.6v-9.8
				C293.5,169.6,289.3,165.5,284.2,165.5z"/>
			<path fill="#D7F7F6" d="M285.3,164.6h-4H136.9h-4c-5.2,0-9.4,4.2-9.4,9.4v10v5.7V200v46v10v16.7v10c0,5.2,4.2,9.4,9.4,9.4h4h22.6
				h4h91.2h4h22.6h4c5.2,0,9.4-4.2,9.4-9.4v-10V256v-10v-46v-10.4V184v-10C294.7,168.8,290.5,164.6,285.3,164.6z M288.7,184v5.7V200
				v46v10v16.7v10c0,1.9-1.5,3.4-3.4,3.4h-4h-22.6h-4h-91.2h-4h-22.6h-4c-1.9,0-3.4-1.5-3.4-3.4v-10V256v-10v-46v-10.4V184v-10
				c0-1.9,1.5-3.4,3.4-3.4h4h144.4h4c1.9,0,3.4,1.5,3.4,3.4V184z"/>
			<polygon fill="#E25D30" points="151,323.8 166.9,311.9 182.8,323.8 182.8,270.1 151,270.1 			"/>
			<path fill="#C44026" d="M151,300.7c4.5,3.2,10,5,15.9,5c5.9,0,11.4-1.9,15.9-5v-27.8H151V300.7z"/>
			<path fill="#EF9620" d="M192.4,272.2c0-1.3-1.5-1.1-2.1-2.6c-0.4-1,0.9-2.2,0.7-3.2c-0.3-1.2-1.8-0.7-2.6-2.1
				c-0.6-0.9,0.4-2.4,0-3.2c-0.5-1.1-1.9-0.3-3-1.4c-0.8-0.8-0.2-2.4-0.8-3.1c-0.8-1-1.9,0.1-3.3-0.7c-1-0.6-0.7-2.3-1.5-2.9
				c-1-0.8-1.8,0.6-3.3,0.1c-1.1-0.3-1.2-2.1-2.1-2.5c-1.1-0.5-1.6,1-3.2,0.9c-1.1-0.1-1.7-1.7-2.6-1.9c-1.2-0.3-1.4,1.3-2.9,1.6
				c-1.1,0.2-2-1.3-3-1.3c-1.3,0-1,1.6-2.5,2.2c-1,0.4-2.3-0.8-3.2-0.5c-1.2,0.3-0.6,1.8-1.9,2.7c-0.9,0.7-2.4-0.3-3.2,0.2
				c-1.1,0.6-0.2,1.9-1.2,3.1c-0.7,0.9-2.4,0.3-3.1,1c-0.9,0.8,0.2,1.9-0.5,3.3c-0.5,1-2.2,0.8-2.8,1.6c-0.7,1,0.7,1.8,0.3,3.3
				c-0.3,1.1-2,1.3-2.3,2.2c-0.5,1.2,1.1,1.6,1.1,3.2c0,1.1-1.6,1.8-1.8,2.7c-0.2,1.3,1.4,1.3,1.8,2.8c0.3,1.1-1.2,2.1-1.1,3.1
				c0.1,1.3,1.7,0.9,2.4,2.4c0.5,1-0.7,2.3-0.3,3.2c0.4,1.2,1.8,0.5,2.8,1.8c0.7,0.8-0.1,2.4,0.4,3.2c0.7,1.1,1.9,0.1,3.2,1.1
				c0.9,0.7,0.4,2.3,1.1,3c0.9,0.9,1.9-0.4,3.3,0.3c1,0.4,1,2.2,1.8,2.7c1.1,0.7,1.7-0.8,3.3-0.5c1.1,0.2,1.4,1.9,2.4,2.2
				c1.2,0.4,1.5-1.2,3.1-1.2c1.1-0.1,1.8,1.5,2.8,1.6c1.3,0.1,1.2-1.5,2.7-1.9c1.1-0.3,2.1,1,3.1,0.9c1.3-0.2,0.8-1.7,2.2-2.5
				c1-0.6,2.3,0.5,3.2,0.2c1.2-0.5,0.4-1.9,1.6-2.9c0.8-0.8,2.4,0,3.2-0.6c1-0.7,0-1.9,0.9-3.2c0.6-0.9,2.3-0.6,3-1.3
				c0.8-0.9-0.5-1.8,0.1-3.3c0.4-1,2.1-1.1,2.6-2c0.6-1.1-0.9-1.7-0.7-3.3c0.1-1.1,1.8-1.6,2.1-2.5c0.3-1.2-1.2-1.4-1.4-3
				C190.9,274,192.4,273.2,192.4,272.2z"/>
			<g>
				<circle fill="#EF9620" cx="166.9" cy="275.1" r="21.9"/>
				<circle fill="#FFD371" cx="166.9" cy="275.1" r="13.6"/>
				<circle fill="#EF9620" cx="166.9" cy="275.1" r="10.7"/>
			</g>
			<g>
				<g>
					<rect x="150.7" y="192" fill="#B4DCE8" width="116.7" height="3"/>
					<rect x="150.7" y="199" fill="#B4DCE8" width="116.7" height="3"/>
					<rect x="150.7" y="206" fill="#B4DCE8" width="116.7" height="3"/>
					<rect x="150.7" y="213" fill="#B4DCE8" width="78.3" height="3"/>
				</g>
				<g>
					<rect x="150.7" y="226.7" fill="#B4DCE8" width="116.7" height="3"/>
					<rect x="150.7" y="233.7" fill="#B4DCE8" width="95.1" height="3"/>
				</g>
			</g>
		</g>
		<g>
			<g>
				<g>
					<rect x="242.2" y="322.7" fill="#FAA526" width="11.8" height="17.4"/>
					<g>
						<polygon fill="#FAA526" points="246.3,339.2 309.7,363.1 397.7,329.8 334.4,305.9 						"/>
						<polygon fill="#FFCD4E" points="246.3,339.2 246,345.1 309.7,369.5 397.7,336.2 397.7,329.8 309.7,363.1 						"/>
					</g>
					<polygon fill="#D7F7F6" points="309.9,361.1 395.5,328.7 395.5,313.7 309.9,313.7 					"/>
					<path fill="#FFFFFF" d="M246,325c-1.2,0-2.2,1.9-2.2,4.4c0,3,1.2,5.9,2.8,7.8l63.3,23.9l0,0v-16.9l-63.1-19
						C246.5,325.1,246.2,325,246,325z"/>
					<g>
						<polygon fill="#FAA526" points="334.3,286.2 332.1,285.3 242,319.7 305.3,343.6 307.8,342.7 309.7,343.4 397.7,310.1 
							334.4,286.2 						"/>
						<polygon fill="#FFCD4E" points="247.2,319.8 246.3,325.8 309.7,349.8 397.7,316.5 397.7,310.1 309.7,343.4 						"/>
					</g>
					<path fill="#FFCD4E" d="M244.6,319.3c-2.4,0-4.6,1.2-6.1,3.3c-1.3,1.8-2,4.3-2,7.1c0,3.1,0.9,6.3,2.4,9.1c1.7,2.9,4,5.1,6.5,6
						l60.7,23.3v-6.4l-58.5-22.5c-2.4-0.9-5.1-5.1-5.1-9.6c0-2.5,0.9-4.4,2.2-4.4c0.2,0,0.5,0.1,0.8,0.2l60.7,23V342l-58.6-22.2
						C246.5,319.5,245.5,319.3,244.6,319.3z"/>
				</g>
				<g>
					<rect x="242.2" y="296.7" fill="#00636D" width="11.8" height="17.4"/>
					<g>
						<polygon fill="#00636D" points="246.3,313.1 309.7,337 397.7,303.7 334.4,279.8 						"/>
						<polygon fill="#108699" points="246.3,313.1 246,319 309.7,343.4 397.7,310.1 397.7,303.7 309.7,337 						"/>
					</g>
					<polygon fill="#D7F7F6" points="309.9,335 395.5,302.7 395.5,287.6 309.9,287.6 					"/>
					<path fill="#FFFFFF" d="M246,299c-1.2,0-2.2,1.9-2.2,4.4c0,3,1.2,5.9,2.8,7.8l63.3,23.9l0,0v-16.9l-63.1-19
						C246.5,299,246.2,299,246,299z"/>
					<g>
						<polygon fill="#00636D" points="334.3,260.1 332.1,259.3 242,293.6 305.3,317.6 307.8,316.6 309.7,317.3 397.7,284 
							334.4,260.1 						"/>
						<polygon fill="#108699" points="247.2,293.7 246.3,299.7 309.7,323.7 397.7,290.4 397.7,284 309.7,317.3 						"/>
					</g>
					<path fill="#108699" d="M244.6,293.2c-2.4,0-4.6,1.2-6.1,3.3c-1.3,1.8-2,4.3-2,7.1c0,3.1,0.9,6.3,2.4,9.1c1.7,2.9,4,5.1,6.5,6
						L306,342v-6.4l-58.5-22.5c-2.4-0.9-5.1-5.1-5.1-9.6c0-2.5,0.9-4.4,2.2-4.4c0.2,0,0.5,0.1,0.8,0.2l60.7,23v-6.4l-58.6-22.2
						C246.5,293.4,245.5,293.2,244.6,293.2z"/>
				</g>
				<g>
					<rect x="242.2" y="270.5" fill="#E25D30" width="11.8" height="17.4"/>
					<g>
						<polygon fill="#E25D30" points="246.3,286.9 309.7,310.9 397.7,277.6 334.4,253.7 						"/>
						<polygon fill="#C44026" points="246.3,286.9 246,292.9 309.7,317.3 397.7,284 397.7,277.6 309.7,310.9 						"/>
					</g>
					<polygon fill="#D7F7F6" points="309.9,308.9 395.5,276.5 395.5,261.5 309.9,261.5 					"/>
					<path fill="#FFFFFF" d="M246,272.8c-1.2,0-2.2,1.9-2.2,4.4c0,3,1.2,5.9,2.8,7.8l63.3,23.9l0,0V292l-63.1-19
						C246.5,272.9,246.2,272.8,246,272.8z"/>
					<g>
						<polygon fill="#E25D30" points="334.3,234 332.1,233.1 242,267.5 305.3,291.4 307.8,290.5 309.7,291.2 397.7,257.9 334.4,234 
													"/>
						<polygon fill="#C44026" points="247.2,267.6 246.3,273.6 309.7,297.6 397.7,264.3 397.7,257.9 309.7,291.2 						"/>
					</g>
					<path fill="#C44026" d="M244.6,267.1c-2.4,0-4.6,1.2-6.1,3.3c-1.3,1.8-2,4.3-2,7.1c0,3.1,0.9,6.3,2.4,9.1c1.7,2.9,4,5.1,6.5,6
						l60.7,23.3v-6.4L247.5,287c-2.4-0.9-5.1-5.1-5.1-9.6c0-2.5,0.9-4.4,2.2-4.4c0.2,0,0.5,0.1,0.8,0.2l60.7,23v-6.4l-58.6-22.2
						C246.5,267.3,245.5,267.1,244.6,267.1z"/>
				</g>
			</g>
			<path fill="#C44026" d="M324.7,236l-59.6,22.7c3.9,9.4,23.9,16.5,48,16.5c26.9,0,48.7-8.9,48.7-19.9
				C361.8,245.9,346,238.1,324.7,236z"/>
			<g>
				<path fill="#01767C" d="M274.5,249.1c0,9.2,17.5,16.6,39.2,16.6c21.6,0,39.2-7.5,39.2-16.6v-34.9h-78.3V249.1z"/>
				<polygon fill="#D7F7F6" points="379.3,239.5 374.7,257.9 392.7,257.9 387.8,239.5 				"/>
				<path fill="#01767C" d="M352.8,211.4h-78.3c-1.8,0-3.2,1.3-3.2,2.8v34.9c0,5.6,4.7,10.7,13.3,14.3c7.8,3.3,18.2,5.2,29.1,5.2
					c10.9,0,21.3-1.8,29.1-5.2c8.6-3.6,13.3-8.7,13.3-14.3v-34.9C356.1,212.7,354.6,211.4,352.8,211.4z"/>
				<path fill="#00636D" d="M271.2,240l31.9,11.9c5.8,2.1,15.2,2.1,21,0l31.9-11.9v-23.8h-84.8V240z"/>
				<path fill="#FFFFFF" d="M381.3,205.8l-58.3-21.7c-5.1-1.9-13.4-1.9-18.5,0l-58.3,21.7c-5.1,1.9-5.1,5,0,6.9l58.3,21.7
					c5.1,1.9,13.4,1.9,18.5,0l58.3-21.7C386.4,210.8,386.4,207.7,381.3,205.8z"/>
				<path fill="#108699" d="M381.3,205.8l-58.3-21.7c-5.1-1.9-13.4-1.9-18.5,0l-58.3,21.7c-5.1,1.9-5.1,5,0,6.9l58.3,21.7
					c5.1,1.9,13.4,1.9,18.5,0l58.3-21.7C386.4,210.8,386.4,207.7,381.3,205.8z"/>
				<path fill="#01767C" d="M384.2,209.2l-71.5-2.7c-1.6,0-3.7,1.3-3.7,2.7c0,1.4,1.3,2.5,2.9,2.5l66.8,2.6l2.6-1
					c3-1.1,4.2-2.6,3.7-4C384.7,209.3,384.5,209.2,384.2,209.2z"/>
				<path fill="#108699" d="M382.5,203.2l-58.3-21.7c-2.9-1.1-6.6-1.7-10.5-1.7s-7.7,0.6-10.5,1.7l-58.3,21.7
					c-5.1,1.9-5.8,4.6-5.8,6c0,1.5,0.8,4.2,5.8,6l58.3,21.7c2.9,1.1,6.6,1.7,10.5,1.7s7.7-0.6,10.5-1.7l58.3-21.7
					c5.1-1.9,5.8-4.6,5.8-6C388.3,207.8,387.6,205,382.5,203.2z M380,210.1l-58.3,21.7c-2.1,0.8-5,1.2-8,1.2c-3,0-5.9-0.4-8-1.2
					l-58.3-21.7c-0.9-0.3-1.4-0.6-1.7-0.8c0.3-0.2,0.8-0.5,1.7-0.8l58.3-21.7c2.1-0.8,5-1.2,8-1.2c3,0,5.9,0.4,8,1.2l58.3,21.7
					c0.9,0.3,1.4,0.6,1.7,0.8C381.4,209.4,380.9,209.7,380,210.1z"/>
				<path fill="#D7F7F6" d="M384.2,205.8h-72.3c-1.6,0-2.9,1.1-2.9,2.5c0,1.4,1.3,2.5,2.9,2.5h69.4v26.3c0,1.4,1.3,2.5,2.9,2.5
					c1.6,0,2.9-1.1,2.9-2.5v-28.8C387.1,207,385.8,205.8,384.2,205.8z"/>
				<ellipse fill="#D7F7F6" cx="383.7" cy="238" rx="6.6" ry="6.2"/>
			</g>
		</g>
	</g>
</g>
</svg>
