<?xml version="1.0" encoding="utf-8"?>
<!-- Generator: Adobe Illustrator 18.1.0, SVG Export Plug-In . SVG Version: 6.00 Build 0)  -->
<svg version="1.1" id="Layer_1" xmlns="http://www.w3.org/2000/svg" xmlns:xlink="http://www.w3.org/1999/xlink" x="0px" y="0px"
	 viewBox="0 0 500 500" enable-background="new 0 0 500 500" xml:space="preserve">
<g>
	<circle fill="#EF922A" cx="250" cy="250" r="192.6"/>
	<g>
		<g>
			<path fill="#108699" d="M353.9,264.9c-2.8-1.8-6.5-0.9-8.2,1.9c-15.6,24.9-39.9,42.2-68.6,48.7c-28.6,6.6-58.1,1.6-82.9-14
				c-24.9-15.6-42.2-39.9-48.7-68.6c-6.6-28.6-1.6-58.1,14-82.9c1.8-2.8,0.9-6.5-1.9-8.2c-2.8-1.8-6.5-0.9-8.2,1.9
				c-8.7,13.9-14.5,29.2-17.1,45.3c-2.5,15.6-2,31.3,1.5,46.7c3.5,15.4,9.9,29.8,18.9,42.7c9.4,13.4,21.2,24.6,35.1,33.3
				c13.9,8.7,29.2,14.5,45.3,17.1c6.5,1,12.9,1.6,19.4,1.6c9.1,0,18.3-1,27.3-3.1c15.4-3.5,29.8-9.9,42.7-18.9
				c13.4-9.4,24.6-21.2,33.3-35.1C357.5,270.4,356.7,266.7,353.9,264.9z"/>
			
				<rect x="274.7" y="238.8" transform="matrix(-0.7889 -0.6145 0.6145 -0.7889 417.6458 633.0221)" fill="#108699" width="85.6" height="12"/>
		</g>
		<rect x="240.3" y="321.6" fill-rule="evenodd" clip-rule="evenodd" fill="#108699" width="24.5" height="53.3"/>
		<g>
			<path fill-rule="evenodd" clip-rule="evenodd" fill="#FFFFFF" d="M252.5,118.7c-49.6,0-89.8,40.2-89.8,89.8
				c0,49.6,40.2,89.8,89.8,89.8c49.6,0,89.8-40.2,89.8-89.8C342.4,158.8,302.1,118.7,252.5,118.7z"/>
			<path fill-rule="evenodd" clip-rule="evenodd" fill="#B4DCE8" d="M252.5,118.7c-34.3,0-64,19.2-79.2,47.3
				c17.1-21.5,43.5-35.2,73.1-35.2c51.6,0,93.5,41.8,93.5,93.4c0,1.9-0.1,3.9-0.2,5.8c1.7-6.9,2.6-14.1,2.6-21.5
				C342.4,158.8,302.1,118.7,252.5,118.7z"/>
			<path fill-rule="evenodd" clip-rule="evenodd" fill="#18BFC8" d="M285.2,234.8c-1.8-0.5-3.4-4.5-3.8-7.4
				c-0.5-2.9-2.5-6.3-5.4-7.7c-2.8-1.4-4.7-0.1-7.3-1.5c-2.6-1.4-6.8-4.3-9.4-5.2c-2.6-0.8-6.3-0.4-8.9-1.7c-2.6-1.4-6.6,2-6.6,2
				s-3.3,5.7-4.4,7.3c-1.1,1.5-1.5,8.1-0.9,10.2c0.5,2.2,5.6,7.2,5.6,7.2s2.3,4,4.1,4c1.8,0,5.3-2.5,8.2-2.7
				c2.9-0.2,4.4,2.2,5.2,3.5c0.8,1.4,1.2,7.4,0.9,9.2c-0.3,1.8,0,13.7,0.8,14.7c0.8,1.1,6.4,6.7,8.5,6.8c2.1,0,4.6-3.6,6.4-5.2
				c1.9-1.6,4.4-8.1,4.4-9.9l0.2-9.5c0-1.6,2.4-3.9,4.3-5.7c1.9-1.8,3.8-5.2,3.2-7.3C290,233.9,287,235.4,285.2,234.8z"/>
			<g>
				<g>
					<path fill-rule="evenodd" clip-rule="evenodd" fill="#18BFC8" d="M254.2,113.6c-52.4-0.9-95.6,40.7-96.6,93.1
						c-0.9,52.4,40.8,95.6,93.2,96.5c52.4,0.9,95.6-40.7,96.6-93.1C348.4,157.8,306.6,114.6,254.2,113.6z M182.1,257.5
						c-4.7-6.6-8.4-13.8-11.1-21.5c2.1,0.6,4.5,0.7,6.4,1.3c3.2,0.9,6.2,5.9,7.5,6.5C186.2,244.3,183.4,255.8,182.1,257.5z
						 M263.8,184c2.1-0.2,4.8-4.4,6.1-4.4c1.3,0,4.2,2.5,4.7,3.4c0.5,0.9-2.3,6.7-3.8,6.9c-1.6,0.2-7.4,2-8.7,1.9
						c-1.3,0-7-2.5-8.4-0.9c-1.3,1.6-3.9,1.3-2.7,4.9c1.3,3.7-0.1,6.6-1.2,6.8c-1,0.2-9.8,2.5-1.1,2.9c8.7,0.4,10.8-2.4,12.7-2.7
						c1.9-0.2,5.1-2.5,7.1-1.4c2.1,1.1,5.4-0.5,7.1,0.1c1.8,0.6,5.8-4.3,7.6-2.4c1.8,1.8,1.2,5.5,0.7,6.8c-0.5,1.3-3.7,2.3-3,4.1
						c0.8,1.9,2.3,4.3,4.7,6.1c2.3,1.9,3.9,4.3,5.5,2.4c1.6-1.8,1.6-4.2,2.4-5.2c0.8-1,8.2,0.4,8.4,2c0.2,1.6,3.8,5.1,4.6,5.3
						c0.8,0.3,3.7,1.7,3.7,1.7s0.8,1,2,3.8c1.3,2.8,3.9,2.9,5.7,2.4c1.9-0.5,3.4-4.4,5.9-4.1c2.4,0.3,3.7-0.7,6.3,2
						c2.4,2.5,3.1,3.2,4.9,4.6c-4.2,15-12.2,28.4-23.1,38.9c-15.9,15.3-37.5,24.5-61.2,24.1c-14.1-0.3-27.3-3.9-38.9-10.2
						c1.5-2.8,2.6-11.1,2.6-11.1s2.5-20.7,1.7-22c-0.8-1.3-6-6.4-9.3-8c-3.4-1.7-6.6,0.1-9.5-1c-2.9-1.1-4.1-5.6-6.2-7.2
						c-2.1-1.6-5.2-1.7-8.5-2.6c-3.2-1-5.3-5-6.1-6.6c-0.8-1.6-0.2-5.4,2.2-5.7c2.4-0.3,5-0.7,14.1-4.9c9-4.2-0.9-7.2-0.3-13.5
						c0.6-6.3,9-5.7,12.5-9.3c3.5-3.6-2.2-6.1-4.8-8.2c-2.6-2.2-6.8,0.4-8.5,3.2c-1.6,2.8-2.2,5.2-5.4,4.6c-3.2-0.7-4.2-1.2-5.9-4.8
						c-1.8-3.5,1.3-3.7,8.3-8.3c7-4.6,2.7-4.7,2.5-6.5c-0.2-1.8-3.1-1.1-6.5-2.5c-0.1,0-0.1-0.1-0.1-0.1c-3.1-1.5-1.3-4.9,0.8-6.2
						c2.1-1.3,4.5-1.5,6.6-0.2c2,1.4,2,2.4,7.6,0.4c5.6-2,5.8-0.2,7.6,2.5c1.2,1.7,2.6,4.2,4.1,6.5c0.8,1.3,1.6,2.6,2.4,3.5
						c2,2.7,7.4,0.1,11.9-2.4c0.1,0,0.1-0.1,0.1-0.1c4.4-2.6,2.9-6.7,3.2-10.4c0.3-3.7-2.5-3.7-4.1-5c-1.6-1.3-1.8-6.1-3.5-8.7
						c-1.8-2.7-5.5-2.5-7.9-1.7c-2.4,0.8-6.4,4.1-7.1,3.8c-0.8-0.3-0.5-4.2-2.3-5.5c-1.1-0.8-5.2-1-8.8-1.7
						c15.6-14,36.3-22.4,58.8-22c23.7,0.4,45,10.4,60.3,26.3c3.4,3.5,6.5,7.4,9.3,11.5c-8.7,2.6-23.9,7.6-25.1,9.1
						c-1.6,2.1-7.1,3.1-9.7,1.7c-2.6-1.3-4.4-2.9-7.1-2.7c-2.6,0.2-3.7,0.5-5.6,2.5c-1.2,1.3-3.4,3.1-5.6,4
						c-1.3,0.6-2.7,0.9-3.7,0.3c-0.3-0.2-0.6-0.2-0.9-0.3c-0.9-0.2-1.7-0.2-2.4,0c-1.2,0.4-1.9,1.1-1.9,1.1
						C258.5,179.4,261.7,184.2,263.8,184z"/>
				</g>
			</g>
		</g>
		<rect x="204" y="367.4" fill-rule="evenodd" clip-rule="evenodd" fill="#01767C" width="97" height="12.8"/>
		<rect x="196.6" y="376.2" fill-rule="evenodd" clip-rule="evenodd" fill="#108699" width="111.9" height="14.4"/>
	</g>
</g>
</svg>
