<?xml version="1.0" encoding="utf-8"?>
<!-- Generator: Adobe Illustrator 18.1.0, SVG Export Plug-In . SVG Version: 6.00 Build 0)  -->
<svg version="1.1" id="Layer_1" xmlns="http://www.w3.org/2000/svg" xmlns:xlink="http://www.w3.org/1999/xlink" x="0px" y="0px"
	 viewBox="0 0 500 500" enable-background="new 0 0 500 500" xml:space="preserve">
<g>
	<circle fill="#18BFC8" cx="250" cy="250" r="192.6"/>
	<g>
		<g>
			<path fill="#EF9620" d="M248.7,170.5c-46.7,0-84.6,36.3-84.6,81.1c0,5.2,1.4,12.4,2.8,18.4c1.5,6.6,5,17.5,8.4,22
				c12.7,17,39.6,41.3,42.8,66.4c0.1,1.1,0.2,2.2,0.3,3.3c1,1.3,3.2,2.5,6.1,3.5c5.4,1.8,13.4,2.9,22.3,3c9.2,0,17.3-1.1,22.7-3
				c3.1-1.1,5.2-2.3,6.1-3.7c0-0.8,0.1-1.6,0.2-2.4c1.3-10,6.4-19.8,13-29.2c3.2-4.6,18.4-19.6,21.9-23.3c14-14.4,22.6-33.7,22.6-55
				C333.3,206.8,295.4,170.5,248.7,170.5z"/>
			<path fill="#FFD371" d="M248.7,170.5c-46.7,0-84.6,36.3-84.6,81.1c0,5.2,1.4,12.4,2.8,18.4c1.5,6.6,5,17.5,8.4,22
				c12.7,17,39.6,41.3,42.8,66.4c0.1,1.1,0.2,2.2,0.3,3.3c1,1.3,3.2,2.5,6.1,3.5c5.4,1.8,13.4,2.9,22.3,3c0.1,0,0.2,0,0.3,0
				c9,0,17.1-1.1,22.4-3c3.1-1.1,5.2-2.3,6.1-3.7c0-0.8,0.1-1.6,0.2-2.4c1.3-10,6.4-19.8,13-29.2c3.2-4.6,18.4-19.6,21.9-23.3
				c14-14.4,22.6-33.7,22.6-55C333.3,206.8,295.4,170.5,248.7,170.5z M302.3,298.4c-0.7,0.7-1.7,1.8-3.1,3.1
				c-10.7,10.8-17.3,17.8-20,21.5c-7.9,11.2-12.7,21.5-14.5,31.2c-4.3,1.3-10.8,2-17.6,2h-0.3c-6.7,0-13.2-0.8-17.5-2
				c-3.8-21.4-20.4-40.6-33.8-56.1c-4.1-4.8-8-9.3-10.9-13.2c-1.5-2-4.6-10.1-6.4-17.7c-2.2-9.1-2.5-13.8-2.5-15.7
				c0-38.2,32.7-69.3,72.9-69.3c40.2,0,72.9,31.1,72.9,69.3C321.6,269,314.7,285.6,302.3,298.4z"/>
			<g>
				<path fill="#FFFFFF" d="M236.6,252.9c-2.1-2.5-5.1-3.7-8.9-3.7c-4.2,0-7.6,2-9,5.3c-1.4,3.4-0.4,7.5,2.6,10.5
					c3.4,3.4,8.7,3,13.4,3v70.5h4.7v-63.5v-7v0h0.2h6.8v-4.7h-6.9C239.7,260.5,239.3,256.1,236.6,252.9z M235,263.8
					c-3.6,0.2-8.2-0.1-10.3-2.2c-1.6-1.6-2.3-3.7-1.6-5.4c0.6-1.5,2.3-2.4,4.6-2.4c2.4,0,4.1,0.7,5.3,2.1
					C234.8,258.1,235.1,261.6,235,263.8z"/>
				<path fill="#FFFFFF" d="M265.4,249.2c-3.8,0-6.8,1.3-8.9,3.7c-2.7,3.2-3.1,7.6-3.1,10.4h-9.3v4.7h9.2h0.2v0v7v63.5h4.7V268
					c4.7,0,10.1,0.3,13.4-3c3-3,4-7.1,2.6-10.5C273,251.2,269.6,249.2,265.4,249.2z M268.4,261.6c-2.1,2.1-6.7,2.4-10.3,2.2
					c-0.1-2.2,0.1-5.8,1.9-7.9c1.2-1.4,2.9-2.1,5.3-2.1c2.3,0,4,0.9,4.6,2.4C270.7,257.9,270.1,260,268.4,261.6z"/>
			</g>
			<g>
				<path fill="#108699" d="M248.7,347.1c-21.1,0-38.3-14.3-38.3,6.8c0,21.1,17.1,38.3,38.3,38.3c21.1,0,38.3-17.1,38.3-38.3
					C287,332.8,269.9,347.1,248.7,347.1z"/>
				<g>
					<path fill="#108699" d="M287,334h-76.6c-5.1,0-9.2,4.1-9.2,9.2c0,5.1,4.1,9.2,9.2,9.2H287c5.1,0,9.2-4.1,9.2-9.2
						C296.2,338.1,292.1,334,287,334z"/>
					<path fill="#01767C" d="M287,343.2h-76.6c-3.4,0-6.3-1.9-7.9-4.6c-0.8,1.4-1.3,2.9-1.3,4.6c0,5.1,4.1,9.2,9.2,9.2H287
						c5.1,0,9.2-4.1,9.2-9.2c0-1.7-0.5-3.2-1.3-4.6C293.3,341.4,290.4,343.2,287,343.2z"/>
				</g>
				<g>
					<path fill="#108699" d="M287,352.4h-76.6c-5.1,0-9.2,4.1-9.2,9.2c0,5.1,4.1,9.2,9.2,9.2H287c5.1,0,9.2-4.1,9.2-9.2
						C296.2,356.5,292.1,352.4,287,352.4z"/>
					<path fill="#01767C" d="M287,361.6h-76.6c-3.4,0-6.3-1.9-7.9-4.6c-0.8,1.4-1.3,2.9-1.3,4.6c0,5.1,4.1,9.2,9.2,9.2H287
						c5.1,0,9.2-4.1,9.2-9.2c0-1.7-0.5-3.2-1.3-4.6C293.3,359.7,290.4,361.6,287,361.6z"/>
				</g>
			</g>
			<path fill="#FFD371" d="M248.7,194c-21.8,0-40.7,11.8-50.9,29.4c12-9.6,27.3-15.3,43.9-15.3c30,0,55.6,18.8,65.8,45.2
				c0-0.2,0-0.3,0-0.5C307.5,220.4,281.2,194,248.7,194z"/>
		</g>
		<g>
			<path fill="#D7F7F6" d="M249.7,107.8h-2.2c-1.9,0-3.4,1.5-3.4,3.4v37.1c0,1.9,1.5,3.4,3.4,3.4h2.2c1.9,0,3.4-1.5,3.4-3.4v-37.1
				C253.1,109.3,251.6,107.8,249.7,107.8z"/>
			<g>
				<path fill="#D7F7F6" d="M351.7,144.2c-1.3-1.3-3.5-1.3-4.8,0l-26.2,26.2c-1.3,1.3-1.3,3.5,0,4.8l1.6,1.6c1.3,1.3,3.5,1.3,4.8,0
					l26.2-26.2c1.3-1.3,1.3-3.5,0-4.8L351.7,144.2z"/>
				<path fill="#D7F7F6" d="M390.9,242.6h-37.1c-1.9,0-3.4,1.5-3.4,3.4v2.2c0,1.9,1.5,3.4,3.4,3.4h37.1c1.9,0,3.4-1.5,3.4-3.4V246
					C394.3,244.1,392.8,242.6,390.9,242.6z"/>
				<path fill="#D7F7F6" d="M383,187.9c-0.9-1.6-3-2.2-4.6-1.2l-32.1,18.5c-1.6,0.9-2.2,3-1.2,4.6l1.1,1.9c0.9,1.6,3,2.2,4.6,1.2
					l32.1-18.5c1.6-0.9,2.2-3,1.2-4.6L383,187.9z"/>
				<path fill="#D7F7F6" d="M383,187.9c-0.9-1.6-3-2.2-4.6-1.2l-32.1,18.5c-1.6,0.9-2.2,3-1.2,4.6l1.1,1.9c0.9,1.6,3,2.2,4.6,1.2
					l32.1-18.5c1.6-0.9,2.2-3,1.2-4.6L383,187.9z"/>
				<path fill="#D7F7F6" d="M306,117l-2.1-0.6c-1.8-0.5-3.7,0.6-4.2,2.4l-9.6,35.8c-0.5,1.8,0.6,3.7,2.4,4.2l2.1,0.6
					c1.8,0.5,3.7-0.6,4.2-2.4l9.6-35.8C308.9,119.4,307.8,117.5,306,117z"/>
			</g>
			<g>
				<path fill="#D7F7F6" d="M153.1,144.2c-1.3-1.3-3.5-1.3-4.8,0l-1.6,1.6c-1.3,1.3-1.3,3.5,0,4.8l26.2,26.2c1.3,1.3,3.5,1.3,4.8,0
					l1.6-1.6c1.3-1.3,1.3-3.5,0-4.8L153.1,144.2z"/>
				<path fill="#D7F7F6" d="M146.2,242.6h-37.1c-1.9,0-3.4,1.5-3.4,3.4v2.2c0,1.9,1.5,3.4,3.4,3.4h37.1c1.9,0,3.4-1.5,3.4-3.4V246
					C149.5,244.1,148,242.6,146.2,242.6z"/>
				<path fill="#D7F7F6" d="M153.8,205.2l-32.1-18.5c-1.6-0.9-3.7-0.4-4.6,1.2l-1.1,1.9c-0.9,1.6-0.4,3.7,1.2,4.6l32.1,18.5
					c1.6,0.9,3.7,0.4,4.6-1.2l1.1-1.9C156,208.2,155.4,206.1,153.8,205.2z"/>
				<path fill="#D7F7F6" d="M153.8,205.2l-32.1-18.5c-1.6-0.9-3.7-0.4-4.6,1.2l-1.1,1.9c-0.9,1.6-0.4,3.7,1.2,4.6l32.1,18.5
					c1.6,0.9,3.7,0.4,4.6-1.2l1.1-1.9C156,208.2,155.4,206.1,153.8,205.2z"/>
				<path fill="#D7F7F6" d="M200.3,118.9c-0.5-1.8-2.4-2.9-4.2-2.4L194,117c-1.8,0.5-2.9,2.4-2.4,4.2l9.6,35.8
					c0.5,1.8,2.4,2.9,4.2,2.4l2.1-0.6c1.8-0.5,2.9-2.4,2.4-4.2L200.3,118.9z"/>
			</g>
		</g>
	</g>
</g>
</svg>
