<?xml version="1.0" encoding="utf-8"?>
<!-- Generator: Adobe Illustrator 18.1.0, SVG Export Plug-In . SVG Version: 6.00 Build 0)  -->
<svg version="1.1" id="Layer_1" xmlns="http://www.w3.org/2000/svg" xmlns:xlink="http://www.w3.org/1999/xlink" x="0px" y="0px"
	 viewBox="0 0 500 500" enable-background="new 0 0 500 500" xml:space="preserve">
<g>
	<circle fill="#108699" cx="250" cy="250" r="192.6"/>
	<g>
		<g>
			<g>
				<g>
					<polygon fill="#B4DCE8" points="257.3,331.5 242.7,331.5 214,331.5 192.7,373.6 242.7,373.6 257.3,373.6 307.3,373.6 
						286,331.5 					"/>
				</g>
				<path fill="#18BFC8" d="M374.4,150.5H125.6c-5.1,0-9.1,4.1-9.1,9.1v18.3v135.3v18.3c0,5.1,4.1,9.1,9.1,9.1h248.7
					c5.1,0,9.1-4.1,9.1-9.1v-18.3V177.9v-18.3C383.5,154.6,379.4,150.5,374.4,150.5z"/>
				<path fill="#D7F7F6" d="M305.8,368.1H194.2c-5.1,0-9.1,4.1-9.1,9.1v7.3h129.8v-7.3C314.9,372.2,310.8,368.1,305.8,368.1z"/>
			</g>
			<path fill="#EF922A" d="M365.4,163.5H134.6c-1,0-1.8,0.8-1.8,1.8v9.9v4.7v9.4v116.2v18.2c0,1,0.8,1.8,1.8,1.8h230.8
				c1,0,1.8-0.8,1.8-1.8v-18.2V189.2v-9.4v-4.7v-9.9C367.2,164.3,366.4,163.5,365.4,163.5z"/>
			<g>
				<g>
					<path fill="#E35921" d="M331.4,171.7l-168.9,0.2c-6.4,0-11.5,9-11.5,15.4l0.1,122.8c0,6.4,5.2,11.5,11.5,11.5l168.9-0.2
						c6.4,0,11.5-5.2,11.5-11.5L343,187C342.9,180.7,337.8,171.7,331.4,171.7z"/>
					<circle fill="#E35921" cx="247.1" cy="315.7" r="11.5"/>
					<path fill="#E35921" d="M331.4,167.8L162.6,168c-6.4,0-11.5,5.2-11.5,11.5l0.1,126.7c0,6.4,5.2,11.5,11.5,11.5l168.9-0.2
						c6.4,0,11.5-5.2,11.5-11.5l-0.1-126.7C342.9,173,337.8,167.8,331.4,167.8z"/>
					<g>
						<path fill="#D14718" d="M247.1,308l0-9.6L247,194.8l0-7.7l0-9.6c0-6.4-5.2-11.5-11.5-11.5l-7.7,0l-1.9,0l-59.5,0.1
							c-3.2,0-5.8,2.6-5.8,5.8l0.1,136.2c0,3.2,2.6,5.8,5.8,5.8l57.6-0.1l11.5,0c6.4,0,11.5,5.1,11.5,11.5l0-11.5L247.1,308z"/>
						<g>
							<path fill="#D14718" d="M327.6,165.9l-59.5,0.1l-1.9,0l-7.7,0c-6.4,0-11.5,5.2-11.5,11.5l0,9.6l0,7.7l0.1,103.6l0,9.6l0,5.8
								l0,11.5c0-6.4,5.1-11.5,11.5-11.5l11.5,0l57.6-0.1c3.2,0,5.8-2.6,5.8-5.8l-0.1-136.2C333.3,168.5,330.8,165.9,327.6,165.9z"
								/>
						</g>
					</g>
					<g>
						<path fill="#FFFFFF" d="M247.1,302.2l0-9.6L247,189l0-11.5l0-5.8c0-6.4-5.2-11.5-11.5-11.5l-7.7,0l-1.9,0l-59.5,0.1
							c-3.2,0-5.8,2.6-5.8,5.8l0.1,136.2c0,3.2,2.6,5.8,5.8,5.8l57.6-0.1l11.5,0c6.4,0,11.5,5.1,11.5,11.5l0-11.5L247.1,302.2z"/>
						<path fill="#77C3F5" d="M327.6,160.2l-59.5,0.1l-1.9,0l-7.7,0c-6.4,0-11.5,5.2-11.5,11.5l0,5.8l0,11.5l0.1,103.6l0,9.6l0,5.8
							l0,11.5c0-6.4,5.1-11.5,11.5-11.5l11.5,0l57.6-0.1c3.2,0,5.8-2.6,5.8-5.8l-0.1-136.2C333.3,162.7,330.8,160.2,327.6,160.2z"/>
						<path fill="#FFFFFF" d="M327.6,160.2l-59.5,0.1l-1.9,0l-7.7,0c-6.4,0-11.5,5.2-11.5,11.5l0,5.8l0,11.5l0.1,103.6l0,9.6l0,5.8
							l0,11.5c0-6.4,5.1-11.5,11.5-11.5l11.5,0l57.6-0.1c3.2,0,5.8-2.6,5.8-5.8l-0.1-136.2C333.3,162.7,330.8,160.2,327.6,160.2z"/>
						<path fill="#EEFCFF" d="M247,171.8l0,5.8l0,11.5l0.1,103.6l0,9.6l0,5.8l0,11.5c0-5,3.2-9.3,7.7-10.9l0-0.7l0-5.8l0-9.6
							L254.7,189l0-11.5l0-5.8c0-6.4,5.1-11.5,11.5-11.5l-7.7,0C252.1,160.2,247,165.4,247,171.8z"/>
					</g>
				</g>
				<g>
					<g>
						
							<rect x="199.9" y="172.8" transform="matrix(-9.530026e-04 -1 1 -9.530026e-04 -0.4493 408.3894)" fill="#B4DCE8" width="7.7" height="63.2"/>
						
							<rect x="200" y="188.1" transform="matrix(-9.395320e-04 -1 1 -9.395320e-04 -15.7187 423.8375)" fill="#B4DCE8" width="7.7" height="63.3"/>
						
							<rect x="200" y="203.5" transform="matrix(-9.530026e-04 -1 1 -9.530026e-04 -31.0529 439.2211)" fill="#B4DCE8" width="7.7" height="63.3"/>
						
							<rect x="200.2" y="218.7" transform="matrix(-9.530026e-04 -1 1 -9.530026e-04 -46.2848 454.707)" fill="#B4DCE8" width="7.7" height="63.5"/>
					</g>
				</g>
				<g>
					<g>
						
							<rect x="290.1" y="170.8" transform="matrix(-9.395320e-04 -1 1 -9.395320e-04 91.8264 496.5692)" fill="#B4DCE8" width="7.7" height="63.2"/>
						
							<rect x="290.2" y="186.1" transform="matrix(-9.663540e-04 -1 1 -9.663540e-04 76.5676 512.0256)" fill="#B4DCE8" width="7.7" height="63.3"/>
						
							<rect x="290.2" y="201.5" transform="matrix(-9.663540e-04 -1 1 -9.663540e-04 61.2304 527.4069)" fill="#B4DCE8" width="7.7" height="63.3"/>
						
							<rect x="274" y="233" transform="matrix(-9.395320e-04 -1 1 -9.395320e-04 29.6394 526.5812)" fill="#B4DCE8" width="7.7" height="30.9"/>
					</g>
				</g>
			</g>
		</g>
		<g>
			<path fill="#D14718" d="M219.8,162.6c0,6.7,12.8,12.1,28.6,12.1c15.8,0,28.6-5.4,28.6-12.1v-25.5h-57.2V162.6z"/>
			<polygon fill="#B4DCE8" points="296.3,155.6 293,169 306.1,169 302.5,155.6 			"/>
			<path fill="#E25D30" d="M277,135.1h-57.2c-1.3,0-2.4,0.9-2.4,2.1v25.5c0,4.1,3.4,7.8,9.7,10.4c5.7,2.4,13.3,3.8,21.3,3.8
				c8,0,15.5-1.3,21.3-3.8c6.3-2.7,9.7-6.4,9.7-10.4v-25.5C279.4,136,278.3,135.1,277,135.1z"/>
			<path fill="#C44026" d="M217.4,156l23.3,8.7c4.2,1.6,11.1,1.6,15.3,0l23.3-8.7v-17.3h-61.9V156z"/>
			<path fill="#FFFFFF" d="M297.8,131l-42.6-15.8c-3.7-1.4-9.8-1.4-13.5,0L199.1,131c-3.7,1.4-3.7,3.6,0,5l42.6,15.8
				c3.7,1.4,9.8,1.4,13.5,0l42.6-15.8C301.5,134.6,301.5,132.4,297.8,131z"/>
			<path fill="#E25D30" d="M297.8,131l-42.6-15.8c-3.7-1.4-9.8-1.4-13.5,0L199.1,131c-3.7,1.4-3.7,3.6,0,5l42.6,15.8
				c3.7,1.4,9.8,1.4,13.5,0l42.6-15.8C301.5,134.6,301.5,132.4,297.8,131z"/>
			<path fill="#C44026" d="M299.9,133.5l-52.2-2c-1.2,0-2.7,0.9-2.7,1.9s1,1.9,2.1,1.9l48.7,1.9l1.9-0.7c2.2-0.8,3.1-1.9,2.7-2.9
				C300.3,133.5,300.1,133.5,299.9,133.5z"/>
			<path fill="#E25D30" d="M298.7,129.1l-42.6-15.8c-2.1-0.8-4.8-1.2-7.7-1.2c-2.9,0-5.6,0.4-7.7,1.2l-42.6,15.8
				c-3.7,1.4-4.2,3.4-4.2,4.4c0,1.1,0.6,3,4.2,4.4l42.6,15.8c2.1,0.8,4.8,1.2,7.7,1.2c2.9,0,5.6-0.4,7.7-1.2l42.6-15.8
				c3.7-1.4,4.2-3.4,4.2-4.4C302.9,132.4,302.4,130.5,298.7,129.1z M296.8,134.1l-42.6,15.8c-1.5,0.6-3.6,0.9-5.8,0.9
				c-2.2,0-4.3-0.3-5.8-0.9L200,134.1c-0.7-0.2-1-0.5-1.2-0.6c0.2-0.1,0.6-0.4,1.2-0.6l42.6-15.8c1.5-0.6,3.6-0.9,5.8-0.9
				c2.2,0,4.3,0.3,5.8,0.9l42.6,15.8c0.7,0.2,1,0.5,1.2,0.6C297.8,133.7,297.5,133.9,296.8,134.1z"/>
			<path fill="#B4DCE8" d="M299.9,131h-52.8c-1.2,0-2.1,0.8-2.1,1.9s1,1.9,2.1,1.9h50.7v19.2c0,1,1,1.9,2.1,1.9
				c1.2,0,2.1-0.8,2.1-1.9v-21C302.1,131.9,301.1,131,299.9,131z"/>
			<ellipse fill="#B4DCE8" cx="299.5" cy="154.5" rx="4.8" ry="4.5"/>
		</g>
	</g>
</g>
</svg>
