<?xml version="1.0" encoding="utf-8"?>
<!-- Generator: Adobe Illustrator 18.1.0, SVG Export Plug-In . SVG Version: 6.00 Build 0)  -->
<svg version="1.1" id="Layer_1" xmlns="http://www.w3.org/2000/svg" xmlns:xlink="http://www.w3.org/1999/xlink" x="0px" y="0px"
	 viewBox="0 0 500 500" enable-background="new 0 0 500 500" xml:space="preserve">
<g>
	<circle fill="#E15C2F" cx="250" cy="250" r="192.6"/>
	<g>
		<g>
			<polygon fill="#D7F7F6" points="181.5,111.4 114.3,170 114.3,312.2 286.3,312.2 286.3,111 181.2,111 			"/>
			<rect x="173.6" y="126" fill="#EF922A" width="92.8" height="9.5"/>
			<g>
				<rect x="157.7" y="165.4" fill="#B4DCE8" width="108.8" height="4.5"/>
				<rect x="142.6" y="176.1" fill="#B4DCE8" width="123.8" height="4.5"/>
				<rect x="135.8" y="176.1" fill="#B4DCE8" width="123.8" height="4.5"/>
				<rect x="135.8" y="186.8" fill="#B4DCE8" width="100.3" height="4.5"/>
				<rect x="135.8" y="208.2" fill="#B4DCE8" width="130.7" height="4.5"/>
				<rect x="135.8" y="218.9" fill="#B4DCE8" width="130.7" height="4.5"/>
				<rect x="135.8" y="229.6" fill="#B4DCE8" width="74.4" height="4.5"/>
				<rect x="135.8" y="240.4" fill="#B4DCE8" width="130.7" height="4.5"/>
				<rect x="135.8" y="251.1" fill="#B4DCE8" width="130.7" height="4.5"/>
				<rect x="135.8" y="261.8" fill="#B4DCE8" width="28.8" height="4.5"/>
			</g>
			<polygon fill="#FFFFFF" points="114.6,170 181.5,170 181.5,111 114.3,169.7 			"/>
		</g>
		<g>
			<path fill="#D7F7F6" d="M329.1,288.4c-18.4,0.8-38.6,7.4-38.1,26.7c0.4,19.3,21.6,43.1,40,42.8c18.4-0.4,35.8-11.5,37.9-39.6
				C370.5,295.6,358,287.1,329.1,288.4z"/>
			<path fill="#D7F7F6" d="M218.9,290.6c-28.9-0.2-41,8.8-38.4,31.4c3.3,28,21.1,38.5,39.5,38.1c18.4-0.4,38.6-25,38.1-44.3
				C257.8,296.4,237.4,290.6,218.9,290.6z"/>
			<path fill="#D7F7F6" d="M329.1,288.4c-18.4,0.8-38.6,7.4-38.1,26.7c0.1,6.4,2.6,13.3,6.4,19.7c-1-3.1-1.5-6.1-1.6-9.1
				c-0.4-19.3,19.7-25.8,38.1-26.7c17-0.8,28.4,1.9,34.5,8.8C365.8,293,353,287.3,329.1,288.4z"/>
			<path fill="#D7F7F6" d="M218.9,290.6c-28.9-0.2-41,8.8-38.4,31.4c1.1,9.4,3.8,16.8,7.7,22.5c-1.3-3.7-2.2-7.9-2.8-12.6
				c-2.6-22.5,9.6-31.5,38.4-31.4c12.8,0.1,26.6,2.9,34,11.1C254.7,295.6,236,290.6,218.9,290.6z"/>
			<path fill="#01767C" d="M201.7,337.3c0,0-6.9,1.5-14,6.4c-5.9,4-10.5,10.6-9.7,15.3c1.7,9.7,8.5,14.1,17.3,7.5
				c5.7-4.3-0.1-8,7.9-14.3c2.7-2.1,12.1-4,12.1-4l168.9-43.8l-0.7-13.5L201.7,337.3z"/>
			<polygon fill="#00636D" points="250.4,338.9 270.6,333.7 270.6,325.3 250.4,325.3 			"/>
			<path fill="#108699" d="M187.7,343.6C187.7,343.6,187.7,343.6,187.7,343.6c3.3,5.2,7.5,9.1,12.3,11.7c0.7-1,1.7-2.1,3.2-3.3
				c2.7-2.1,12.1-4,12.1-4l35.4-9.2c3.2-5,5.6-10.5,6.7-15.8l-55.8,14.3C201.7,337.3,194.8,338.8,187.7,343.6z"/>
			<path fill="#108699" d="M291,314.4c0,0.2,0,0.5,0,0.7c0.1,4.1,1.1,8.4,2.8,12.6l74.7-19.4c-0.9-5.1-2.9-9.1-6-12.2L291,314.4z"/>
			<polygon fill="#00636D" points="245.3,326.1 272.5,333.2 299.8,326.1 272.5,319.1 			"/>
			<path fill="#01767C" d="M360.1,346.9c-7.1-4.8-14-6.4-14-6.4l-181.8-46.6l-0.7,13.5l168.9,43.8c0,0,9.4,1.9,12.1,4
				c8,6.3,2.3,10,7.9,14.3c8.8,6.7,15.6,2.3,17.3-7.5C370.6,357.4,366,350.9,360.1,346.9z"/>
			<path fill="#108699" d="M293.6,327.1c2.4,6,6.2,11.9,10.8,16.9l28.1,7.3c0,0,9.4,1.9,12.1,4c0,0,0.1,0.1,0.1,0.1
				c5.2-1.9,10-5,13.9-9.5c-6.6-4.1-12.5-5.4-12.5-5.4L293.6,327.1z"/>
			<path fill="#01767C" d="M228.6,330.4l23.6,6.1c2.3-4.1,4.1-8.4,5.1-12.6l-1.6-0.4L228.6,330.4z"/>
			<path fill="#108699" d="M180.4,311.8l74.4,19.3c1.9-4.4,3.1-8.9,3.3-13.1l-72.2-18.5C182.9,302.7,181.1,306.7,180.4,311.8z"/>
			<g>
				<g>
					<g>
						<path fill="#18BFC8" d="M368.2,287.6c-6.1-2.8-15.4-8.5-29.4-8.8c-19.4-0.3-39.3,7.2-49.8,15.7c-3.3,2.6-10.8,4.5-14.8,5.3
							c-4-0.7-11.6-2.2-15-4.7c-10.8-8.1-31.1-14.9-50.4-13.8c-14,0.8-23,6.9-29,9.9c-6,3-16.7,2.1-16.7,2.1l0,18
							c0,0,6.6,0.5,7.4,6.7c0.9,7.5,2.5,27.3,14.5,38.2c8.5,7.7,24.3,16.8,48.4,9.1c20.4-6.5,29.5-40.5,31.7-44.2
							c1.5-2.5,6.4-4.5,9.5-5.5c3.1,0.9,8.1,2.8,9.7,5.2c2.4,3.6,12.9,37.2,33.6,42.9c24.4,6.7,39.8-3,48-11
							c11.5-11.4,12.2-31.2,12.8-38.8c0.5-6.3,7.1-7,7.1-7l-0.8-18C385,289.1,374.4,290.4,368.2,287.6z M220,360
							c-18.4,0.4-36.3-10.1-39.5-38.1c-2.6-22.5,9.6-31.5,38.4-31.4c18.4,0.1,38.9,5.9,39.3,25.1C258.6,335,238.5,359.7,220,360z
							 M368.9,318.2c-2,28.1-19.4,39.3-37.9,39.6c-18.4,0.4-39.6-23.5-40-42.8c-0.4-19.3,19.7-25.8,38.1-26.7
							C358,287.1,370.5,295.6,368.9,318.2z"/>
					</g>
				</g>
			</g>
			<path fill="#FFFFFF" d="M333.5,293.2c-6.2,0-12,1.9-16.8,5c2.3-0.4,4.7-0.6,7.1-0.6c18.7,0,34.4,12.4,38.4,29
				c0.4-1.8,0.6-3.7,0.6-5.6C362.8,305.6,349.7,293.2,333.5,293.2z"/>
			<path fill="#FFFFFF" d="M223.8,294.3c-6.2,0-12,1.9-16.8,5c2.3-0.4,4.7-0.6,7.1-0.6c18.7,0,34.4,12.4,38.4,29
				c0.4-1.8,0.6-3.7,0.6-5.6C253.2,306.7,240,294.3,223.8,294.3z"/>
		</g>
	</g>
</g>
</svg>
