<?xml version="1.0" encoding="utf-8"?>
<!-- Generator: Adobe Illustrator 18.1.0, SVG Export Plug-In . SVG Version: 6.00 Build 0)  -->
<svg version="1.1" id="Layer_1" xmlns="http://www.w3.org/2000/svg" xmlns:xlink="http://www.w3.org/1999/xlink" x="0px" y="0px"
	 viewBox="0 0 500 500" enable-background="new 0 0 500 500" xml:space="preserve">
<g>
	<circle fill="#E15C2F" cx="250" cy="250" r="192.6"/>
	<g>
		<path fill="#00636D" d="M337.2,137.4H162.8c-8.9,0-16.1,7.2-16.1,16.1v2.7v206.7v2.7c0,8.9,7.2,16.1,16.1,16.1h174.5
			c8.9,0,16.1-7.2,16.1-16.1v-2.7V156.2v-2.7C353.3,144.6,346.1,137.4,337.2,137.4z"/>
		<path fill="#108699" d="M337.2,132.4H162.8c-8.9,0-16.1,7.2-16.1,16.1v2.7v206.7v2.7c0,8.9,7.2,16.1,16.1,16.1h174.5
			c8.9,0,16.1-7.2,16.1-16.1v-2.7V151.2v-2.7C353.3,139.6,346.1,132.4,337.2,132.4z"/>
		<path fill="#00636D" d="M324.8,144.3h-2.6H181.1h-2.6c-4.3,0-7.7,3.6-7.7,8.1v198.6c0,4.4,3.4,8.1,7.7,8.1h2.6h141.2h2.6
			c4.3,0,7.7-3.6,7.7-8.1V152.3C332.5,147.9,329.1,144.3,324.8,144.3z"/>
		<path fill="#FFFFFF" d="M321.1,148.5h-2.7H181.6h-2.7c-4.4,0-8.1,3.6-8.1,8.1v187.9c0,4.4,3.6,8.1,8.1,8.1h2.7h136.9h2.7
			c4.4,0,8.1-3.6,8.1-8.1V156.5C329.2,152.1,325.6,148.5,321.1,148.5z"/>
		<g>
			<path fill="#EF922A" d="M261.2,108.2h-25.2c-10.8,0-19.6,8.9-19.6,19.8v7h8.1v-7c0-6.5,5.2-11.8,11.6-11.8h25.2
				c6.4,0,11.6,5.3,11.6,11.8v7h8.1v-7C280.9,117.1,272.1,108.2,261.2,108.2z"/>
			<path fill="#D7F7F6" d="M285.4,127.9h-73.5c-10.8,0-19.6,8.9-19.6,19.8v9.7H305v-9.7C305,136.8,296.2,127.9,285.4,127.9z"/>
			<path fill="#EF922A" d="M285.4,124.3h-73.5c-10.8,0-19.6,8.9-19.6,19.8v9.7H305v-9.7C305,133.2,296.2,124.3,285.4,124.3z"/>
			<path fill="#FFD371" d="M285.4,124.3h-73.5c-10.8,0-19.6,8.9-19.6,19.8v1.4c0-9.3,8.8-16.9,19.6-16.9h73.5
				c10.8,0,19.6,7.6,19.6,16.9v-1.4C305,133.2,296.2,124.3,285.4,124.3z"/>
		</g>
		<g>
			<g>
				<rect x="186.6" y="257.4" fill="#108699" width="126.8" height="2.8"/>
				<rect x="186.6" y="264" fill="#108699" width="126.8" height="2.8"/>
				<rect x="186.6" y="270.7" fill="#108699" width="72.2" height="2.8"/>
				<rect x="186.6" y="277.3" fill="#108699" width="126.8" height="2.8"/>
				<rect x="186.6" y="283.9" fill="#108699" width="126.8" height="2.8"/>
				<rect x="186.6" y="290.6" fill="#108699" width="27.9" height="2.8"/>
			</g>
			<g>
				<rect x="186.6" y="307" fill="#108699" width="126.8" height="2.8"/>
				<rect x="186.6" y="313.6" fill="#108699" width="126.8" height="2.8"/>
				<rect x="186.6" y="320.2" fill="#108699" width="72.2" height="2.8"/>
				<rect x="241.2" y="320.2" fill="#108699" width="72.2" height="2.8"/>
				<rect x="186.6" y="326.9" fill="#108699" width="71.5" height="2.8"/>
			</g>
		</g>
		<rect x="186.6" y="216.4" fill="#D7F7F6" width="126.8" height="2.8"/>
		<rect x="186.6" y="197.5" fill="#D7F7F6" width="126.8" height="2.8"/>
		<rect x="186.6" y="178.6" fill="#D7F7F6" width="126.8" height="2.8"/>
		<rect x="194.5" y="195.8" fill="#00636D" width="15.8" height="40.4"/>
		<rect x="217.7" y="189.1" fill="#EF922A" width="15.8" height="47.1"/>
		<rect x="264.1" y="191.9" fill="#E15C2F" width="15.8" height="44.3"/>
		<rect x="240.9" y="182.7" fill="#18BFC8" width="15.8" height="53.4"/>
		<rect x="287.3" y="173.4" fill="#108699" width="15.8" height="62.7"/>
		<rect x="186.6" y="235.3" fill="#108699" width="126.8" height="2.8"/>
	</g>
</g>
</svg>
