<?xml version="1.0" encoding="utf-8"?>
<!-- Generator: Adobe Illustrator 18.1.0, SVG Export Plug-In . SVG Version: 6.00 Build 0)  -->
<svg version="1.1" id="Layer_1" xmlns="http://www.w3.org/2000/svg" xmlns:xlink="http://www.w3.org/1999/xlink" x="0px" y="0px"
	 viewBox="0 0 500 500" enable-background="new 0 0 500 500" xml:space="preserve">
<g>
	<circle fill="#108699" cx="250" cy="250" r="192.6"/>
	<g>
		<g>
			<g>
				<path fill="#D7F7F6" d="M273.8,146.9H154.7c-7.2,0-13,5.8-13,13v86.6c0,7.2,5.8,13,13,13h13.1l-0.1,28.4c2.5,2.5,6.7,2.5,9.2,0
					l28.4-28.4h68.6c7.2,0,13-5.8,13-13v-86.6C286.8,152.7,281,146.9,273.8,146.9z"/>
				<path fill="#B4DCE8" d="M198.3,220.9v4.3v37v4.3l7-7h68.6c7.2,0,13-5.8,13-13v-4.3v-32.5v-4.3h-73.1
					C205.2,205.4,198.3,212.3,198.3,220.9z"/>
				<path fill="#E15C2F" d="M345.3,220.5H226.2c-7.2,0-13,5.8-13,13v86.6c0,7.2,5.8,13,13,13h68.6l28.4,28.4c2.5,2.5,6.7,2.5,9.2,0
					l-0.1-28.4h13.1c7.2,0,13-5.8,13-13v-86.6C358.3,226.3,352.5,220.5,345.3,220.5z"/>
			</g>
			<g>
				<path fill="#18BFC8" d="M194.4,322.5h-39.5c-3.1,0-5.6-2.5-5.6-5.6v-46c0-2.1-1.7-3.8-3.8-3.8c-2.1,0-3.8,1.7-3.8,3.8v46
					c0,7.3,5.9,13.2,13.2,13.2h39.5c2.1,0,3.8-1.7,3.8-3.8C198.2,324.2,196.5,322.5,194.4,322.5z"/>
				<path fill="#18BFC8" d="M188,309.3c-1.5-1.5-3.9-1.5-5.4,0c-1.5,1.5-1.5,3.9,0,5.4l11.8,11.8l-11.8,11.8c-1.5,1.5-1.5,3.9,0,5.4
					c0.7,0.7,1.7,1.1,2.7,1.1c1,0,2-0.4,2.7-1.1l14.5-14.5c0.7-0.7,1.1-1.7,1.1-2.7c0-1-0.4-2-1.1-2.7L188,309.3z"/>
			</g>
			<g>
				<path fill="#18BFC8" d="M345.1,151.2h-39.5c-2.1,0-3.8,1.7-3.8,3.8c0,2.1,1.7,3.8,3.8,3.8h39.5c3.1,0,5.6,2.5,5.6,5.6v46
					c0,2.1,1.7,3.8,3.8,3.8c2.1,0,3.8-1.7,3.8-3.8v-46C358.3,157.1,352.4,151.2,345.1,151.2z"/>
				<path fill="#18BFC8" d="M317.4,137.7c-0.7-0.7-1.7-1.1-2.7-1.1c-1,0-2,0.4-2.7,1.1l-14.5,14.5c-0.7,0.7-1.1,1.7-1.1,2.7
					c0,1,0.4,2,1.1,2.7L312,172c1.5,1.5,3.9,1.5,5.4,0c1.5-1.5,1.5-3.9,0-5.4l-11.8-11.8l11.8-11.8
					C318.9,141.6,318.9,139.2,317.4,137.7z"/>
			</g>
		</g>
		<g>
			<path fill="#FFFFFF" d="M327.4,253.6h-82.9c-2.4,0-4.3,1.9-4.3,4.3c0,2.4,1.9,4.3,4.3,4.3h82.9c2.4,0,4.3-1.9,4.3-4.3
				C331.7,255.6,329.7,253.6,327.4,253.6z"/>
			<path fill="#FFFFFF" d="M327.4,272.5h-82.9c-2.4,0-4.3,1.9-4.3,4.3c0,2.4,1.9,4.3,4.3,4.3h82.9c2.4,0,4.3-1.9,4.3-4.3
				C331.7,274.5,329.7,272.5,327.4,272.5z"/>
			<path fill="#FFFFFF" d="M275.3,291.4h-30.8c-2.4,0-4.3,1.9-4.3,4.3c0,2.4,1.9,4.3,4.3,4.3h30.8c2.4,0,4.3-1.9,4.3-4.3
				C279.6,293.4,277.7,291.4,275.3,291.4z"/>
		</g>
	</g>
</g>
</svg>
