<?xml version="1.0" encoding="utf-8"?>
<!-- Generator: Adobe Illustrator 18.1.0, SVG Export Plug-In . SVG Version: 6.00 Build 0)  -->
<svg version="1.1" id="Layer_1" xmlns="http://www.w3.org/2000/svg" xmlns:xlink="http://www.w3.org/1999/xlink" x="0px" y="0px"
	 viewBox="0 0 500 500" enable-background="new 0 0 500 500" xml:space="preserve">
<g>
	<circle fill="#108699" cx="250" cy="250" r="192.6"/>
	<g>
		<g>
			<g>
				<path fill="#B4DCE8" d="M347.6,146.3H345H155h-2.6c-8.7,0-15.8,7.1-15.8,15.8v165.2c0,8.7,7.1,15.8,15.8,15.8h2.6H345h2.6
					c8.7,0,15.8-7.1,15.8-15.8V162.1C363.4,153.4,356.3,146.3,347.6,146.3z"/>
				<g>
					<path fill="#EF9620" d="M334.7,162.1h-2.1H167.4h-2.1c-7.1,0-12.9,5.8-12.9,12.9v97.2c0,7.1,5.8,12.9,12.9,12.9h2.1h165.1h2.1
						c7.1,0,12.9-5.8,12.9-12.9V175C347.6,167.9,341.8,162.1,334.7,162.1z"/>
				</g>
				<path fill="#FFFFFF" d="M263.2,290.4h-23.7c-2.9,0-5.3,2.4-5.3,5.3c0,2.9,2.4,5.3,5.3,5.3h23.7c2.9,0,5.3-2.4,5.3-5.3
					C268.5,292.8,266.1,290.4,263.2,290.4z"/>
				<path fill="#B4DCE8" d="M363.9,327c0-0.2-0.1-0.4-0.2-0.6H136.3c-0.1,0.2-0.2,0.4-0.2,0.6l-3.4,4.3h-14.5v18.3
					c0,2.3,8.1,4.1,18,4.1H238h9h116.9c9.9,0,18-1.8,18-4.1l-1.3-1.7h1.3v-16.6h-14.5L363.9,327z"/>
				<path fill="#FFFFFF" d="M363.7,308.9H136.3c-0.1,0.2-0.2,0.4-0.2,0.6l-18,21.8c0,2.2,8.1,4,18,4H238h9h116.9c9.9,0,18-1.8,18-4
					l-18-21.8C363.9,309.3,363.8,309.1,363.7,308.9z"/>
				<path fill="#18BFC8" d="M355.1,314.1h-73.9h-62.5h-73.9c-0.1,0.1-0.1,0.2-0.1,0.4l-10.8,13.1c0,1.3,4.8,2.4,10.8,2.4h61.1h5.4
					h7.3h61.1h1.7h3.7h70.1c6,0,10.8-1.1,10.8-2.4l-10.8-13.1C355.3,314.4,355.2,314.3,355.1,314.1z"/>
				<path fill="#FFFFFF" d="M265.8,324.7h-31.7c-2.2,0-4,1.8-4,4c0,2.2,1.8,4,4,4h31.7c2.2,0,4-1.8,4-4
					C269.8,326.5,268,324.7,265.8,324.7z"/>
			</g>
			<g>
				<path fill="#FFCD4E" d="M244.3,202c-2-2-5.2-2-7.1,0v64.6c2,2,5.2,2,7.1,0l28.5-28.7c2-2,2-5.2,0-7.2L244.3,202z"/>
			</g>
		</g>
		<path fill="#18BFC8" d="M334.7,162.1h-2.1H167.4h-2.1c-7.1,0-12.9,5.8-12.9,12.9v14.3h195.2V175
			C347.6,167.9,341.8,162.1,334.7,162.1z"/>
		<g>
			<circle fill="#D7F7F6" cx="302.5" cy="176.7" r="5"/>
			<circle fill="#E15C2F" cx="316.9" cy="176.7" r="5"/>
			<circle fill="#FFCD4E" cx="331.3" cy="176.7" r="5"/>
			<path fill="#FFFFFF" d="M288.1,171.7h-70.8h-23h-25.2c-2.8,0-5,2.3-5,5c0,2.8,2.3,5,5,5h25.2h23h70.8c2.8,0,5-2.3,5-5
				C293.2,173.9,290.9,171.7,288.1,171.7z"/>
		</g>
	</g>
</g>
</svg>
