<?xml version="1.0" encoding="utf-8"?>
<!-- Generator: Adobe Illustrator 18.1.0, SVG Export Plug-In . SVG Version: 6.00 Build 0)  -->
<svg version="1.1" id="Layer_1" xmlns="http://www.w3.org/2000/svg" xmlns:xlink="http://www.w3.org/1999/xlink" x="0px" y="0px"
	 viewBox="0 0 500 500" enable-background="new 0 0 500 500" xml:space="preserve">
<g>
	<circle fill="#EF922A" cx="250" cy="250" r="192.6"/>
	<g>
		<g>
			<g>
				<polygon fill="#D7F7F6" points="256.9,317.6 243.1,317.6 216.1,317.6 196.1,357.2 243.1,357.2 256.9,357.2 303.9,357.2 
					283.9,317.6 				"/>
				<polygon fill="#B4DCE8" points="256.9,317.6 243.1,317.6 216.1,317.6 208.2,333.3 291.8,333.3 283.9,317.6 				"/>
			</g>
			<path fill="#FFFFFF" d="M367,147.2H133c-4.8,0-8.6,3.9-8.6,8.6V173v127.4v17.2c0,4.8,3.9,8.6,8.6,8.6H367c4.8,0,8.6-3.9,8.6-8.6
				v-17.2V173v-17.2C375.7,151,371.8,147.2,367,147.2z"/>
			<path fill="#FFFFFF" d="M302.5,352h-105c-4.8,0-8.6,3.9-8.6,8.6v6.9h122.2v-6.9C311.1,355.9,307.3,352,302.5,352z"/>
		</g>
		<g>
			<g>
				<path fill="#108699" d="M358.6,168.7H141.4c-0.9,0-1.7,0.8-1.7,1.7v139.7c0,0.9,0.8,1.7,1.7,1.7h217.3c0.9,0,1.7-0.8,1.7-1.7
					V170.4C360.3,169.5,359.6,168.7,358.6,168.7z"/>
				<path fill="#D64C27" d="M358.6,159.4H141.4c-0.9,0-1.7,0.8-1.7,1.7v22.5h220.6v-22.5C360.3,160.2,359.6,159.4,358.6,159.4z"/>
				<rect x="139.7" y="174.8" fill="#18BFC8" width="220.6" height="118.2"/>
				<path fill="#18BFC8" d="M352.4,299.7H147.6c-0.9,0-1.7,0.8-1.7,1.7v0.3c0,0.9,0.8,1.7,1.7,1.7h204.8c0.9,0,1.7-0.8,1.7-1.7v-0.3
					C354.1,300.4,353.3,299.7,352.4,299.7z"/>
				<path fill="#01767C" d="M145.9,301.4v0.3c0,0.9,0.8,1.7,1.7,1.7h32.2v-3.7h-32.2C146.7,299.7,145.9,300.4,145.9,301.4z"/>
				<circle fill="#00636D" cx="180.5" cy="301.5" r="3.4"/>
				<g>
					<g>
						<path fill="#1B93AF" d="M295.1,259.5c-1.7-1.3-3.7-2-6-2h-70.9c-1.4,0-2.8,0.3-4,0.8c-4.7,1.3-8.6,5.1-9.8,10.1
							c0,0.1-1.3,17.2-3.2,24.5h103.9c-1.9-7.3-3.2-24.4-3.2-24.5C301,264.5,298.4,261.4,295.1,259.5z"/>
						<path fill="#A4EAE8" d="M257.7,241.4h-9.4c-6,0-10.9,2.8-10.9,6.2v11.8c0,3.4,4.9,6.2,10.9,6.2h9.4c6,0,10.9-2.8,10.9-6.2
							v-11.8C268.6,244.1,263.7,241.4,257.7,241.4z"/>
						<path fill="#108699" d="M274.5,188.9c-2.9,0-11.2-3.2-11.2-0.2c0,0,4.4,2.9,6.8,10.7c2.4,7.9,2.4,21.6,2.4,21.6
							c0,1.3,1.5,4.3,3,4.8c2,0.7,1.9,0,1.9-1.6l2.3-30C279.9,191.2,277.5,188.9,274.5,188.9z"/>
						<g>
							<path fill="#A4EAE8" d="M275.3,211c-2,0-6.4,3.1-6.4,5.1l0,8.6c0,2,4.4,4.7,6.4,4.7c2,0,3.7-1.7,3.7-3.7l1.2-9
								C280.5,212.8,277.3,211,275.3,211z"/>
							<path fill="#E2CAAA" d="M274.5,215.3c-1,0-2.9,1.3-3.4,2.4c1.1,0.4,1.9,1.4,1.9,2.7c0,1.3-0.8,2.3-2,2.7
								c0.4,1,2.4,2.2,3.4,2.2c1.1,0,2-0.9,2-2l0.7-4.9C277.3,216.3,275.6,215.3,274.5,215.3z"/>
						</g>
						<path fill="#A4EAE8" d="M257.7,241.4h-9.4c-6,0-10.9,2.8-10.9,6.2v5.4c5.8,2.7,13.1,4.8,18.6,4.8c4.8,0,9.2-1.3,12.8-3.3v-7
							C268.6,244.1,263.7,241.4,257.7,241.4z"/>
						<path fill="#CFD3D3" d="M227.2,239.4c0,5.4,17.8,13.5,28.7,13.5c11.8,0,21.5-8.1,21.5-13.5v-47.5h-50.2V239.4z"/>
						<path fill="#A4EAE8" d="M227.2,239.4c0,5.4,17.8,13.5,28.7,13.5c11.8,0,21.5-8.1,21.5-13.5v-47.5h-50.2V239.4z"/>
						<path fill="#A4EAE8" d="M227.8,192.9c-0.2,2.6,0.5,5.6,2.7,6.6c4.7,2.3,9-1.8,19.6,1.1c7.6,2.1,14.8,3.9,21.1,3
							c2.6-0.3,4.6-1.5,6.1-3.2v-8.6h-49.5L227.8,192.9z"/>
						<path fill="#108699" d="M231.2,188.9c-2.9,0-5.3,2.4-5.3,5.3v28.4c0,1.7,2.3,3.9,4.3,3.3c1.6-0.5,3-3.6,3-4.8
							c0,0,0-13.8,2.4-21.6c2.4-7.9,6.8-10.7,6.8-10.7C242.4,185.7,234.1,188.9,231.2,188.9z"/>
						<path fill="#A4EAE8" d="M227.7,211c-2,0-5.3,1.8-4.9,5.7l1.2,9c0,2,1.7,3.7,3.7,3.7c2,0,6.4-2.6,6.4-4.7l0-8.6
							C234.1,214.1,229.7,211,227.7,211z"/>
						<path fill="#A4EAE8" d="M229.9,220.3c0-1.2,0.8-2.3,1.9-2.7c-0.5-1.1-2.4-2.4-3.4-2.4c-1.1,0-2.8,1-2.7,3.1l0.7,4.9
							c0,1.1,0.9,2,2,2c1,0,3.1-1.2,3.4-2.2C230.8,222.7,229.9,221.6,229.9,220.3z"/>
						<path fill="#108699" d="M282.3,179.2c-3.9-0.2-0.4,4-13,4c-3.7,0-9.4-1.6-15.2-3.2c-19.2-5.2-24.1,2.6-24.8,4.8
							c-0.5,1.3-0.7,2.7-0.7,3.9c0.1,1.8,0.2,6.9,4.5,9.3c4.5,2.6,7.9-2.5,18.7-0.6c7.7,1.4,15.1,2.5,21.3,1.1
							C284.5,196.1,286.2,179.4,282.3,179.2z"/>
						<polygon fill="#3FD8D8" points="237.8,263.5 235.8,267 239.5,275.8 242.3,293 263.8,293 265.5,276.1 271.5,262.3 257,265.1 
													"/>
						<path fill="#18BFC8" d="M262.2,266.3c-3.5,1-8.2,1.4-9.3,1.5c-1.1-0.1-5.8-0.5-9.3-1.5c-4-1.1-6.4-4-6.4-4l-4.9,6l17.2,5.4
							l3.4-5.5l3.4,5.5l17.2-5.4l-4.9-6C268.6,262.3,266.2,265.2,262.2,266.3z"/>
						<polygon fill="#108699" points="252.9,264.2 252.8,264.2 245.6,267 248.6,272.3 252.9,272.7 253,272.7 253,272.7 257.3,272.3 
							260.2,266.8 252.9,264.2 						"/>
						<path fill="#3FD8D8" d="M237.2,258.3l-4.9,6l17.2,5.4l3.7-5.9c0,0-5.6-0.4-9.6-1.5C239.6,261.2,237.2,258.3,237.2,258.3z"/>
						<path fill="#3FD8D8" d="M262.2,262.3c-4,1.1-9.6,1.5-9.6,1.5l3.7,5.9l17.2-5.4l-4.9-6C268.6,258.3,266.2,261.2,262.2,262.3z"
							/>
						<polygon fill="#108699" points="253.2,270.2 253.2,270 253,270.1 252.8,270 252.8,270.2 251.3,270.9 249.2,293 257.1,293 
							254.7,270.8 						"/>
						<polygon fill="#108699" points="269.4,258.4 268.6,257.5 260.7,293 273,293 274.2,279.7 266.3,276.7 282.8,267.8 						"/>
						<polygon fill="#108699" points="236.4,258.4 223.1,267.8 239.6,276.7 231.7,279.7 232.8,293 245.2,293 237.3,257.5 						"/>
					</g>
				</g>
				<g>
					<g>
						<polygon fill="#FFFFFF" points="240.5,253.2 268.3,233.9 240.5,214.6 						"/>
					</g>
					<path fill="#FFFFFF" d="M250.8,197.7c-20,0-36.2,16.2-36.2,36.2s16.2,36.2,36.2,36.2s36.2-16.2,36.2-36.2
						S270.7,197.7,250.8,197.7z M250.8,263.9c-16.6,0-30-13.4-30-30s13.4-30,30-30c16.6,0,30,13.4,30,30S267.3,263.9,250.8,263.9z"
						/>
				</g>
			</g>
			<g>
				<circle fill="#D33211" cx="336.5" cy="167.8" r="2.9"/>
				<circle fill="#D33211" cx="344.8" cy="167.8" r="2.9"/>
				<circle fill="#D33211" cx="353.2" cy="167.8" r="2.9"/>
			</g>
		</g>
	</g>
</g>
</svg>
